<?xml version="1.0" encoding="UTF-8" standalone="no"?>
<!-- Created with Inkscape (http://www.inkscape.org/) -->

<svg
   version="1.1"
   id="svg2"
   width="529.1333"
   height="371.64001"
   viewBox="0 0 529.1333 371.64001"
   sodipodi:docname="HTWD_logo_CMYK_vertical_color.eps"
   xmlns:inkscape="http://www.inkscape.org/namespaces/inkscape"
   xmlns:sodipodi="http://sodipodi.sourceforge.net/DTD/sodipodi-0.dtd"
   xmlns="http://www.w3.org/2000/svg"
   xmlns:svg="http://www.w3.org/2000/svg">
  <defs
     id="defs6" />
  <sodipodi:namedview
     id="namedview4"
     pagecolor="#ffffff"
     bordercolor="#000000"
     borderopacity="0.25"
     inkscape:showpageshadow="2"
     inkscape:pageopacity="0.0"
     inkscape:pagecheckerboard="0"
     inkscape:deskcolor="#d1d1d1" />
  <g
     id="g8"
     inkscape:groupmode="layer"
     inkscape:label="ink_ext_XXXXXX"
     transform="matrix(1.3333333,0,0,-1.3333333,0,371.64)">
    <g
       id="g10"
       transform="scale(0.1)">
      <path
         d="m 3401.57,1875.2 c 0,49.24 -7.46,94.86 -22.37,136.88 -14.96,42 -36.87,78.71 -65.8,110.09 -28.94,31.4 -64.62,55.8 -107.11,73.18 -35.25,14.44 -75.11,22.53 -119.07,24.97 l -59.82,-59.82 h 31.62 c 50.49,0 91.71,-12.31 123.73,-36.93 32,-24.64 55.63,-58.4 70.87,-101.33 15.22,-42.94 22.84,-91.96 22.84,-147.04 0,-55.09 -7,-104.12 -21,-147.05 -14,-42.93 -36.86,-76.71 -68.55,-101.33 -31.71,-24.63 -74.33,-36.94 -127.89,-36.94 h -120.95 c -8,0 -13.32,0.85 -15.92,2.56 -2.62,1.69 -3.93,6.38 -3.93,14.07 v 444.81 l -106.18,-106.17 v -336.33 c 0,-7.09 -0.62,-12 -1.84,-14.78 -1.24,-2.76 -5.4,-4.16 -12.47,-4.16 h -70.64 c -7.07,0 -11.62,-1.06 -13.6,-3.22 -2.02,-2.15 -3,-6.93 -3,-14.31 v -27.71 c 0,-6.76 1.13,-11.07 3.44,-12.91 2.31,-1.85 6.85,-2.78 13.63,-2.78 h 332.39 c 52.94,0 100.4,8.69 142.43,26.09 42,17.38 77.86,41.78 107.55,73.18 29.71,31.37 52.4,68.09 68.09,110.09 15.71,42.02 23.55,87.64 23.55,136.89"
         style="fill:#f25c19;fill-opacity:1;fill-rule:nonzero;stroke:none"
         id="path12" />
      <path
         d="M 978.84,2220.09 V 1949.2 H 710.574 v 270.89 H 566.93 v -691.13 h 143.644 v 298.29 H 978.84 v -298.29 h 143.15 v 691.13 H 978.84"
         style="fill:#231f20;fill-opacity:1;fill-rule:nonzero;stroke:none"
         id="path14" />
      <path
         d="m 1208.2,2220.09 v -121.95 h 183.93 v -569.18 h 143.64 v 569.18 h 183.94 v 121.95 H 1208.2"
         style="fill:#231f20;fill-opacity:1;fill-rule:nonzero;stroke:none"
         id="path16" />
      <path
         d="m 2572.17,2220.09 -119.53,-508.73 -129.76,508.73 h -135.75 l -130.2,-508.73 -119.51,508.73 h -141.33 l 172.82,-691.13 H 2132 l 122.31,485.06 123.02,-484.15 218.51,218.51 117.62,471.71 h -141.29"
         style="fill:#231f20;fill-opacity:1;fill-rule:nonzero;stroke:none"
         id="path18" />
      <path
         d="m 583.305,1183.99 h 73.843 v -66.25 h 16.344 v 140.58 h -16.344 v -59.9 h -73.843 v 59.9 h -16.352 v -140.58 h 16.352 v 66.25"
         style="fill:#231f20;fill-opacity:1;fill-rule:nonzero;stroke:none"
         id="path20" />
      <path
         d="m 786.695,1148.61 c -2.246,-6.22 -5.718,-11.03 -10.429,-14.43 -4.715,-3.39 -10.723,-5.09 -18.036,-5.09 -7.371,0 -13.402,1.7 -18.078,5.09 -4.679,3.4 -8.144,8.21 -10.386,14.43 -2.243,6.21 -3.368,13.55 -3.368,22.02 0,12.82 2.551,22.85 7.649,30.09 5.094,7.24 13.125,10.87 24.086,10.87 7.441,0 13.5,-1.67 18.176,-5 4.679,-3.34 8.14,-8.07 10.386,-14.18 2.243,-6.13 3.368,-13.39 3.368,-21.78 0,-8.47 -1.125,-15.81 -3.368,-22.02 z m -2.929,69.99 c -7.211,4.3 -15.625,6.45 -25.246,6.45 -10.067,0 -18.739,-2.13 -26.012,-6.4 -7.278,-4.26 -12.871,-10.45 -16.778,-18.55 -3.91,-8.11 -5.863,-17.93 -5.863,-29.47 0,-8.66 1.168,-16.38 3.508,-23.18 2.34,-6.79 5.637,-12.53 9.902,-17.21 4.262,-4.68 9.328,-8.25 15.192,-10.72 5.867,-2.47 12.32,-3.7 19.375,-3.7 7.57,0 14.347,1.23 20.34,3.7 5.996,2.47 11.109,6.04 15.339,10.72 4.231,4.68 7.465,10.42 9.711,17.21 2.243,6.8 3.368,14.52 3.368,23.18 0,11.47 -2.008,21.26 -6.008,29.37 -4.012,8.11 -9.617,14.31 -16.828,18.6"
         style="fill:#231f20;fill-opacity:1;fill-rule:nonzero;stroke:none"
         id="path22" />
      <path
         d="m 857.297,1121.68 c 7.242,-3.91 15.609,-5.86 25.098,-5.86 5.96,0 11.109,0.48 15.429,1.44 4.332,0.96 8.254,2.34 11.781,4.14 v 14.22 c -3.656,-1.6 -7.722,-2.99 -12.21,-4.18 -4.489,-1.19 -9.524,-1.78 -15.094,-1.78 -6.988,0 -12.809,1.59 -17.453,4.76 -4.649,3.18 -8.141,7.77 -10.481,13.8 -2.34,6.03 -3.515,13.3 -3.515,21.83 0,8.91 1.203,16.41 3.609,22.5 2.402,6.09 6.027,10.7 10.863,13.85 4.844,3.14 10.914,4.71 18.227,4.71 3.652,0 7.578,-0.52 11.773,-1.54 4.203,-1.03 7.899,-2.18 11.11,-3.46 l 4.808,13.36 c -3.14,1.6 -7.168,2.94 -12.066,3.99 -4.906,1.06 -9.988,1.59 -15.246,1.59 -9.551,0 -18.071,-1.96 -25.571,-5.87 -7.507,-3.91 -13.382,-9.92 -17.648,-18.03 -4.262,-8.1 -6.391,-18.54 -6.391,-31.29 0,-12.18 2.016,-22.28 6.051,-30.29 4.043,-8.02 9.68,-13.98 16.926,-17.89"
         style="fill:#231f20;fill-opacity:1;fill-rule:nonzero;stroke:none"
         id="path24" />
      <path
         d="m 956.457,1172.84 c 0,8.33 1.012,15.38 3.027,21.15 2.02,5.77 5.352,10.14 10.004,13.13 4.645,2.98 10.875,4.47 18.696,4.47 8.273,0 14.406,-2.19 18.416,-6.54 4.01,-4.36 6.01,-10.93 6.01,-19.71 v -67.6 h 15.77 v 68.66 c 0,8.97 -1.43,16.28 -4.28,21.92 -2.85,5.64 -7.12,9.81 -12.79,12.5 -5.67,2.69 -12.74,4.04 -21.201,4.04 -4.808,0 -9.363,-0.66 -13.656,-1.98 -4.293,-1.31 -8.125,-3.23 -11.484,-5.77 -3.367,-2.53 -6.145,-5.65 -8.321,-9.37 h -1.058 c 0.32,2.18 0.543,4.57 0.676,7.17 0.129,2.59 0.191,5.17 0.191,7.74 v 44.71 h -15.965 v -149.62 h 15.965 v 55.1"
         style="fill:#231f20;fill-opacity:1;fill-rule:nonzero;stroke:none"
         id="path26" />
      <path
         d="m 1093.59,1115.82 c 8.66,0 16.11,1.15 22.36,3.46 6.25,2.31 11.06,5.75 14.42,10.33 3.37,4.59 5.05,10.24 5.05,16.98 0,5.77 -1.3,10.49 -3.89,14.18 -2.6,3.68 -6.3,6.83 -11.11,9.42 -4.81,2.6 -10.51,5.12 -17.11,7.55 -6.61,2.5 -11.93,4.68 -15.97,6.54 -4.03,1.86 -6.97,3.85 -8.8,5.96 -1.82,2.12 -2.73,4.81 -2.73,8.08 0,4.23 1.97,7.56 5.91,10 3.94,2.43 9.6,3.65 16.97,3.65 5.13,0 10.16,-0.64 15.1,-1.92 4.93,-1.29 9.58,-2.85 13.94,-4.72 l 5.38,12.8 c -4.8,2.11 -9.98,3.79 -15.53,5.04 -5.54,1.25 -11.48,1.88 -17.83,1.88 -11.73,0 -21.21,-2.39 -28.42,-7.16 -7.21,-4.78 -10.81,-11.62 -10.81,-20.53 0,-5.84 1.33,-10.58 3.99,-14.24 2.65,-3.65 6.44,-6.74 11.34,-9.27 4.91,-2.54 10.73,-5.09 17.45,-7.65 6.8,-2.5 12.12,-4.79 15.97,-6.87 3.84,-2.09 6.58,-4.23 8.22,-6.45 1.63,-2.21 2.45,-4.75 2.45,-7.64 0,-5.06 -2.05,-9.07 -6.15,-12.02 -4.11,-2.95 -10.71,-4.42 -19.81,-4.42 -6.22,0 -12.31,0.86 -18.27,2.6 -5.96,1.73 -11.09,3.65 -15.39,5.76 v -14.71 c 4.05,-2.11 8.76,-3.75 14.14,-4.9 5.38,-1.16 11.76,-1.73 19.13,-1.73"
         style="fill:#231f20;fill-opacity:1;fill-rule:nonzero;stroke:none"
         id="path28" />
      <path
         d="m 1184.19,1121.68 c 7.24,-3.91 15.61,-5.86 25.1,-5.86 5.96,0 11.11,0.48 15.43,1.44 4.33,0.96 8.25,2.34 11.78,4.14 v 14.22 c -3.66,-1.6 -7.73,-2.99 -12.21,-4.18 -4.49,-1.19 -9.52,-1.78 -15.1,-1.78 -6.98,0 -12.8,1.59 -17.45,4.76 -4.65,3.18 -8.14,7.77 -10.48,13.8 -2.34,6.03 -3.51,13.3 -3.51,21.83 0,8.91 1.2,16.41 3.6,22.5 2.41,6.09 6.03,10.7 10.87,13.85 4.84,3.14 10.91,4.71 18.22,4.71 3.66,0 7.58,-0.52 11.78,-1.54 4.2,-1.03 7.9,-2.18 11.11,-3.46 l 4.81,13.36 c -3.15,1.6 -7.17,2.94 -12.07,3.99 -4.91,1.06 -9.99,1.59 -15.25,1.59 -9.55,0 -18.07,-1.96 -25.57,-5.87 -7.5,-3.91 -13.38,-9.92 -17.65,-18.03 -4.26,-8.1 -6.39,-18.54 -6.39,-31.29 0,-12.18 2.02,-22.28 6.06,-30.29 4.04,-8.02 9.68,-13.98 16.92,-17.89"
         style="fill:#231f20;fill-opacity:1;fill-rule:nonzero;stroke:none"
         id="path30" />
      <path
         d="m 1296.38,1207.12 c 4.65,2.98 10.88,4.47 18.7,4.47 8.28,0 14.41,-2.19 18.42,-6.54 4,-4.36 6.01,-10.93 6.01,-19.71 v -67.6 h 15.77 v 68.66 c 0,8.97 -1.43,16.28 -4.28,21.92 -2.85,5.64 -7.12,9.81 -12.79,12.5 -5.67,2.69 -12.74,4.04 -21.2,4.04 -4.81,0 -9.36,-0.66 -13.66,-1.98 -4.29,-1.31 -8.12,-3.23 -11.48,-5.77 -3.37,-2.53 -6.15,-5.65 -8.33,-9.37 h -1.05 c 0.32,2.18 0.54,4.57 0.67,7.17 0.13,2.59 0.19,5.17 0.19,7.74 v 44.71 h -15.96 v -149.62 h 15.96 v 55.1 c 0,8.33 1.02,15.38 3.03,21.15 2.02,5.77 5.35,10.14 10,13.13"
         style="fill:#231f20;fill-opacity:1;fill-rule:nonzero;stroke:none"
         id="path32" />
      <path
         d="m 1410.01,1119.86 c 5.64,-2.7 12.63,-4.04 20.96,-4.04 4.87,0 9.47,0.62 13.8,1.87 4.33,1.25 8.22,3.13 11.69,5.63 3.46,2.5 6.27,5.58 8.45,9.23 h 0.87 l 2.31,-14.81 h 13.07 v 105.38 h -16.05 v -55.47 c 0,-8.34 -1.03,-15.38 -3.08,-21.11 -2.05,-5.74 -5.4,-10.08 -10.05,-13.03 -4.65,-2.95 -10.88,-4.42 -18.7,-4.42 -8.14,0 -14.2,2.16 -18.17,6.49 -3.98,4.32 -5.96,10.88 -5.96,19.66 v 67.88 h -16.16 v -69.03 c 0,-8.85 1.43,-16.09 4.28,-21.74 2.85,-5.63 7.1,-9.8 12.74,-12.49"
         style="fill:#231f20;fill-opacity:1;fill-rule:nonzero;stroke:none"
         id="path34" />
      <path
         d="m 1520.9,1117.74 h 16.06 v 149.62 h -16.06 v -149.62"
         style="fill:#231f20;fill-opacity:1;fill-rule:nonzero;stroke:none"
         id="path36" />
      <path
         d="m 1596.6,1203.61 c 5.06,5.57 11.86,8.36 20.39,8.36 6.02,0 10.95,-1.33 14.8,-3.99 3.85,-2.66 6.72,-6.38 8.61,-11.15 1.89,-4.78 2.87,-10.31 2.93,-16.59 h -55.77 c 0.96,10 3.98,17.79 9.04,23.37 z m -2.07,-81.59 c 7.53,-4.13 16.36,-6.2 26.49,-6.2 7.12,0 13.29,0.54 18.51,1.63 5.23,1.09 10.5,2.82 15.82,5.2 v 14.03 c -5.52,-2.37 -10.83,-4.16 -15.96,-5.38 -5.13,-1.22 -11.03,-1.83 -17.69,-1.83 -10.84,0 -19.24,3.24 -25.2,9.71 -5.96,6.48 -9.03,15.9 -9.23,28.27 h 72.79 v 9.91 c 0,9.55 -1.7,17.89 -5.1,25.04 -3.39,7.15 -8.3,12.71 -14.71,16.69 -6.41,3.97 -14.1,5.96 -23.07,5.96 -9.43,0 -17.62,-2.25 -24.57,-6.73 -6.96,-4.49 -12.34,-10.88 -16.16,-19.19 -3.81,-8.3 -5.71,-18.12 -5.71,-29.47 0,-11.6 2.08,-21.41 6.24,-29.42 4.17,-8.01 10.02,-14.09 17.55,-18.22"
         style="fill:#231f20;fill-opacity:1;fill-rule:nonzero;stroke:none"
         id="path38" />
      <path
         d="m 1750.92,1117.74 h 15.96 v 92.89 h 26.26 v 12.49 h -26.26 v 7.7 c 0,8.39 1.46,14.56 4.38,18.51 2.91,3.94 7.42,5.91 13.51,5.91 2.82,0 5.59,-0.3 8.32,-0.91 2.72,-0.61 5.17,-1.27 7.35,-1.97 l 4.14,12.59 c -2.57,0.9 -5.53,1.7 -8.9,2.41 -3.36,0.7 -7.06,1.06 -11.1,1.06 -7.18,0 -13.27,-1.32 -18.27,-3.95 -5,-2.63 -8.82,-6.72 -11.45,-12.26 -2.62,-5.55 -3.94,-12.74 -3.94,-21.59 v -7.01 l -18.66,-5.29 v -7.69 h 18.66 v -92.89"
         style="fill:#231f20;fill-opacity:1;fill-rule:nonzero;stroke:none"
         id="path40" />
      <path
         d="m 1834.31,1119.86 c 5.64,-2.7 12.63,-4.04 20.96,-4.04 4.87,0 9.47,0.62 13.8,1.87 4.33,1.25 8.22,3.13 11.68,5.63 3.46,2.5 6.28,5.58 8.46,9.23 h 0.87 l 2.31,-14.81 h 13.07 v 105.38 h -16.05 v -55.47 c 0,-8.34 -1.03,-15.38 -3.08,-21.11 -2.05,-5.74 -5.4,-10.08 -10.05,-13.03 -4.65,-2.95 -10.88,-4.42 -18.7,-4.42 -8.14,0 -14.2,2.16 -18.18,6.49 -3.97,4.32 -5.96,10.88 -5.96,19.66 v 67.88 h -16.15 v -69.03 c 0,-8.85 1.43,-16.09 4.28,-21.74 2.85,-5.63 7.1,-9.8 12.74,-12.49"
         style="fill:#231f20;fill-opacity:1;fill-rule:nonzero;stroke:none"
         id="path42" />
      <path
         d="m 1843.45,1242.36 c 2.49,0 4.59,0.78 6.29,2.35 1.7,1.57 2.55,3.93 2.55,7.07 0,3.2 -0.85,5.55 -2.55,7.02 -1.7,1.47 -3.8,2.21 -6.29,2.21 -2.44,0 -4.49,-0.74 -6.16,-2.21 -1.67,-1.47 -2.5,-3.82 -2.5,-7.02 0,-3.14 0.83,-5.5 2.5,-7.07 1.67,-1.57 3.72,-2.35 6.16,-2.35"
         style="fill:#231f20;fill-opacity:1;fill-rule:nonzero;stroke:none"
         id="path44" />
      <path
         d="m 1880.27,1242.36 c 2.44,0 4.52,0.78 6.25,2.35 1.73,1.57 2.6,3.93 2.6,7.07 0,3.2 -0.87,5.55 -2.6,7.02 -1.73,1.47 -3.81,2.21 -6.25,2.21 -2.37,0 -4.39,-0.74 -6.06,-2.21 -1.66,-1.47 -2.49,-3.82 -2.49,-7.02 0,-3.14 0.83,-5.5 2.49,-7.07 1.67,-1.57 3.69,-2.35 6.06,-2.35"
         style="fill:#231f20;fill-opacity:1;fill-rule:nonzero;stroke:none"
         id="path46" />
      <path
         d="m 1961.26,1174.28 c 0,5.45 0.79,10.4 2.4,14.85 1.6,4.46 3.81,8.28 6.63,11.45 2.83,3.17 6.11,5.61 9.86,7.3 3.74,1.7 7.74,2.56 11.97,2.56 1.86,0 3.85,-0.14 5.96,-0.39 2.11,-0.26 4.04,-0.61 5.77,-1.06 l 2.02,14.81 c -1.8,0.38 -3.85,0.69 -6.16,0.91 -2.3,0.23 -4.51,0.34 -6.63,0.34 -5,0 -9.54,-0.96 -13.6,-2.89 -4.07,-1.92 -7.65,-4.5 -10.72,-7.74 -3.08,-3.23 -5.71,-6.81 -7.89,-10.72 h -0.67 l -1.73,19.42 h -13.27 v -105.38 h 16.06 v 56.54"
         style="fill:#231f20;fill-opacity:1;fill-rule:nonzero;stroke:none"
         id="path48" />
      <path
         d="m 2069.62,1243.89 h 44.23 v -126.15 h 16.44 v 126.15 h 44.04 v 14.43 h -104.71 v -14.43"
         style="fill:#231f20;fill-opacity:1;fill-rule:nonzero;stroke:none"
         id="path50" />
      <path
         d="m 2210.12,1180.24 c 0.96,10 3.97,17.79 9.04,23.37 5.06,5.57 11.86,8.36 20.39,8.36 6.02,0 10.96,-1.33 14.8,-3.99 3.85,-2.66 6.71,-6.38 8.61,-11.15 1.89,-4.78 2.86,-10.31 2.93,-16.59 z m 52.69,38.85 c -6.41,3.97 -14.1,5.96 -23.08,5.96 -9.42,0 -17.61,-2.25 -24.56,-6.73 -6.96,-4.49 -12.34,-10.88 -16.16,-19.19 -3.81,-8.3 -5.71,-18.12 -5.71,-29.47 0,-11.6 2.08,-21.41 6.24,-29.42 4.17,-8.01 10.02,-14.09 17.55,-18.22 7.54,-4.13 16.36,-6.2 26.49,-6.2 7.12,0 13.29,0.54 18.51,1.63 5.23,1.09 10.5,2.82 15.82,5.2 v 14.03 c -5.51,-2.37 -10.84,-4.16 -15.96,-5.38 -5.13,-1.22 -11.03,-1.83 -17.69,-1.83 -10.84,0 -19.23,3.24 -25.19,9.71 -5.97,6.48 -9.04,15.9 -9.24,28.27 h 72.79 v 9.91 c 0,9.55 -1.7,17.89 -5.09,25.04 -3.4,7.15 -8.31,12.71 -14.72,16.69"
         style="fill:#231f20;fill-opacity:1;fill-rule:nonzero;stroke:none"
         id="path52" />
      <path
         d="m 2332.85,1121.68 c 7.24,-3.91 15.6,-5.86 25.09,-5.86 5.96,0 11.1,0.48 15.43,1.44 4.33,0.96 8.26,2.34 11.78,4.14 v 14.22 c -3.65,-1.6 -7.72,-2.99 -12.21,-4.18 -4.48,-1.19 -9.52,-1.78 -15.1,-1.78 -6.98,0 -12.8,1.59 -17.45,4.76 -4.65,3.18 -8.14,7.77 -10.48,13.8 -2.34,6.03 -3.51,13.3 -3.51,21.83 0,8.91 1.2,16.41 3.6,22.5 2.41,6.09 6.03,10.7 10.87,13.85 4.84,3.14 10.92,4.71 18.22,4.71 3.66,0 7.59,-0.52 11.78,-1.54 4.2,-1.03 7.9,-2.18 11.11,-3.46 l 4.81,13.36 c -3.15,1.6 -7.17,2.94 -12.07,3.99 -4.91,1.06 -9.99,1.59 -15.24,1.59 -9.55,0 -18.08,-1.96 -25.58,-5.87 -7.5,-3.91 -13.38,-9.92 -17.64,-18.03 -4.27,-8.1 -6.4,-18.54 -6.4,-31.29 0,-12.18 2.02,-22.28 6.06,-30.29 4.04,-8.02 9.68,-13.98 16.93,-17.89"
         style="fill:#231f20;fill-opacity:1;fill-rule:nonzero;stroke:none"
         id="path54" />
      <path
         d="m 2431.99,1172.84 c 0,8.33 1.02,15.38 3.03,21.15 2.02,5.77 5.36,10.14 10.01,13.13 4.64,2.98 10.87,4.47 18.7,4.47 8.28,0 14.41,-2.19 18.42,-6.54 4.01,-4.36 6.01,-10.93 6.01,-19.71 v -67.6 h 15.77 v 68.66 c 0,8.97 -1.43,16.28 -4.28,21.92 -2.85,5.64 -7.11,9.81 -12.79,12.5 -5.67,2.69 -12.74,4.04 -21.21,4.04 -4.81,0 -9.36,-0.66 -13.66,-1.98 -4.29,-1.31 -8.12,-3.23 -11.49,-5.77 -3.36,-2.53 -6.13,-5.65 -8.31,-9.37 h -1.06 c 0.32,2.18 0.55,4.57 0.68,7.17 0.12,2.59 0.18,5.17 0.18,7.74 v 44.71 h -15.96 v -149.62 h 15.96 v 55.1"
         style="fill:#231f20;fill-opacity:1;fill-rule:nonzero;stroke:none"
         id="path56" />
      <path
         d="m 2614.92,1185.34 v -67.6 h 15.77 v 68.66 c 0,13.52 -3.21,23.34 -9.62,29.46 -6.41,6.13 -15.86,9.19 -28.36,9.19 -4.75,0 -9.27,-0.66 -13.56,-1.97 -4.3,-1.32 -8.18,-3.24 -11.63,-5.77 -3.46,-2.54 -6.32,-5.66 -8.56,-9.38 h -0.86 l -2.41,15.19 h -12.89 v -105.38 h 15.96 v 55.19 c 0,12.57 2.37,22.15 7.12,28.75 4.74,6.61 12.95,9.91 24.62,9.91 8.27,0 14.4,-2.19 18.41,-6.54 4.01,-4.36 6.01,-10.93 6.01,-19.71"
         style="fill:#231f20;fill-opacity:1;fill-rule:nonzero;stroke:none"
         id="path58" />
      <path
         d="m 2669.55,1117.74 h 15.96 v 105.38 h -15.96 v -105.38"
         style="fill:#231f20;fill-opacity:1;fill-rule:nonzero;stroke:none"
         id="path60" />
      <path
         d="m 2677.72,1262.55 c -2.75,0 -5.04,-0.85 -6.87,-2.55 -1.83,-1.7 -2.74,-4.34 -2.74,-7.93 0,-3.53 0.91,-6.16 2.74,-7.89 1.83,-1.73 4.12,-2.59 6.87,-2.59 2.63,0 4.9,0.86 6.78,2.59 1.9,1.73 2.84,4.36 2.84,7.89 0,3.59 -0.94,6.23 -2.84,7.93 -1.88,1.7 -4.15,2.55 -6.78,2.55"
         style="fill:#231f20;fill-opacity:1;fill-rule:nonzero;stroke:none"
         id="path62" />
      <path
         d="m 2764.87,1178.13 42.4,44.99 h -18.75 l -35,-37.3 c -1.8,-1.99 -3.99,-4.62 -6.59,-7.89 -2.6,-3.26 -4.56,-5.74 -5.91,-7.4 h -0.67 c 0.12,2.82 0.28,6.07 0.48,9.76 0.19,3.68 0.29,6.81 0.29,9.38 v 77.69 h -15.87 v -149.62 h 15.87 v 38.17 l 12.78,11.74 37.21,-49.91 h 19.23 l -45.47,60.39"
         style="fill:#231f20;fill-opacity:1;fill-rule:nonzero;stroke:none"
         id="path64" />
      <path
         d="m 2958.71,1167.65 c 0,-8.34 -1.03,-15.38 -3.08,-21.11 -2.05,-5.74 -5.4,-10.08 -10.05,-13.03 -4.65,-2.95 -10.88,-4.42 -18.7,-4.42 -8.14,0 -14.2,2.16 -18.17,6.49 -3.98,4.32 -5.97,10.88 -5.97,19.66 v 67.88 h -16.15 v -69.03 c 0,-8.85 1.43,-16.09 4.28,-21.74 2.85,-5.63 7.1,-9.8 12.74,-12.49 5.64,-2.7 12.63,-4.04 20.96,-4.04 4.87,0 9.47,0.62 13.8,1.87 4.33,1.25 8.22,3.13 11.68,5.63 3.47,2.5 6.28,5.58 8.46,9.23 h 0.87 l 2.31,-14.81 h 13.07 v 105.38 h -16.05 v -55.47"
         style="fill:#231f20;fill-opacity:1;fill-rule:nonzero;stroke:none"
         id="path66" />
      <path
         d="m 3102.38,1117.74 v 68.66 c 0,13.52 -3.2,23.34 -9.61,29.46 -6.42,6.13 -15.87,9.19 -28.37,9.19 -4.75,0 -9.27,-0.66 -13.56,-1.97 -4.29,-1.32 -8.17,-3.24 -11.63,-5.77 -3.46,-2.54 -6.32,-5.66 -8.56,-9.38 h -0.86 l -2.41,15.19 h -12.89 v -105.38 h 15.96 v 55.19 c 0,12.57 2.38,22.15 7.12,28.75 4.74,6.61 12.95,9.91 24.62,9.91 8.27,0 14.4,-2.19 18.41,-6.54 4.01,-4.36 6.01,-10.93 6.01,-19.71 v -67.6 h 15.77"
         style="fill:#231f20;fill-opacity:1;fill-rule:nonzero;stroke:none"
         id="path68" />
      <path
         d="m 3181.25,1129.09 c -9.87,0 -17.23,3.52 -22.07,10.57 -4.83,7.05 -7.26,17.06 -7.26,30 0,13.01 2.44,23.29 7.31,30.82 4.88,7.53 12.22,11.3 22.02,11.3 11.73,0 19.83,-3.59 24.28,-10.77 4.46,-7.18 6.68,-17.47 6.68,-30.86 v -2.89 c 0,-12.63 -2.34,-22.15 -7.01,-28.56 -4.68,-6.41 -12.67,-9.61 -23.95,-9.61 z m 30.77,3.65 h 0.67 l 2.41,-15 h 12.89 v 149.62 h -15.97 v -42.21 c 0,-2.19 0.13,-5.01 0.39,-8.47 0.25,-3.46 0.51,-6.19 0.76,-8.17 h -1.15 c -2.05,3.14 -4.58,5.95 -7.59,8.41 -3.02,2.47 -6.61,4.44 -10.77,5.92 -4.17,1.47 -9.04,2.21 -14.62,2.21 -13.2,0 -23.78,-4.63 -31.73,-13.9 -7.95,-9.26 -11.92,-22.96 -11.92,-41.1 0,-17.95 3.89,-31.48 11.68,-40.58 7.78,-9.1 18.35,-13.65 31.69,-13.65 5.69,0 10.65,0.75 14.85,2.26 4.19,1.5 7.82,3.54 10.87,6.11 3.03,2.56 5.56,5.41 7.54,8.55"
         style="fill:#231f20;fill-opacity:1;fill-rule:nonzero;stroke:none"
         id="path70" />
      <path
         d="m 709.551,983.879 -22.594,-88.078 c -1.027,-4.031 -1.973,-7.949 -2.84,-11.731 -0.863,-3.781 -1.617,-7.398 -2.258,-10.871 -0.644,-3.449 -1.183,-6.758 -1.636,-9.898 -0.383,2.25 -0.817,4.629 -1.297,7.168 -0.481,2.531 -1.028,5.191 -1.633,7.98 -0.613,2.789 -1.301,5.66 -2.066,8.602 -0.774,2.949 -1.606,5.929 -2.504,8.949 l -26.344,87.879 h -16.824 l -25.293,-87.207 c -0.832,-2.891 -1.621,-5.774 -2.352,-8.66 -0.738,-2.883 -1.414,-5.731 -2.023,-8.551 -0.606,-2.832 -1.168,-5.602 -1.684,-8.32 -0.512,-2.719 -0.926,-5.34 -1.25,-7.84 -0.383,2.437 -0.801,4.937 -1.25,7.5 -0.449,2.57 -0.941,5.187 -1.488,7.89 -0.543,2.688 -1.156,5.457 -1.828,8.321 -0.668,2.847 -1.395,5.75 -2.16,8.699 l -22.598,88.168 h -17.024 l 37.313,-140.578 h 16.441 l 27.114,94.519 c 0.836,2.821 1.617,5.61 2.355,8.371 0.738,2.758 1.379,5.348 1.926,7.789 0.543,2.43 0.992,4.579 1.348,6.442 0.351,1.859 0.589,3.269 0.718,4.226 0.196,-0.957 0.496,-2.386 0.914,-4.277 0.414,-1.891 0.946,-4.07 1.586,-6.539 0.641,-2.473 1.328,-5.062 2.067,-7.793 0.738,-2.719 1.519,-5.43 2.355,-8.117 l 27.883,-94.621 h 16.445 l 37.594,140.578 h -17.113"
         style="fill:#231f20;fill-opacity:1;fill-rule:nonzero;stroke:none"
         id="path72" />
      <path
         d="m 752.363,843.301 h 15.969 v 105.39 h -15.969 v -105.39"
         style="fill:#231f20;fill-opacity:1;fill-rule:nonzero;stroke:none"
         id="path74" />
      <path
         d="m 767.32,985.559 c -1.89,1.703 -4.148,2.55 -6.777,2.55 -2.762,0 -5.051,-0.847 -6.879,-2.55 -1.828,-1.7 -2.742,-4.34 -2.742,-7.93 0,-3.527 0.914,-6.16 2.742,-7.891 1.828,-1.726 4.117,-2.59 6.879,-2.59 2.629,0 4.887,0.864 6.777,2.59 1.891,1.731 2.836,4.364 2.836,7.891 0,3.59 -0.945,6.23 -2.836,7.93"
         style="fill:#231f20;fill-opacity:1;fill-rule:nonzero;stroke:none"
         id="path76" />
      <path
         d="m 855.953,950.609 c -5.004,0 -9.535,-0.961 -13.605,-2.89 -4.071,-1.918 -7.649,-4.5 -10.719,-7.731 -3.078,-3.238 -5.707,-6.816 -7.887,-10.718 h -0.676 l -1.73,19.421 h -13.27 v -105.39 h 16.063 v 56.539 c 0,5.449 0.797,10.398 2.402,14.859 1.598,4.449 3.813,8.27 6.629,11.442 2.824,3.168 6.11,5.609 9.86,7.308 3.75,1.692 7.742,2.551 11.972,2.551 1.856,0 3.844,-0.129 5.961,-0.391 2.113,-0.257 4.039,-0.609 5.77,-1.058 l 2.015,14.808 c -1.793,0.391 -3.843,0.692 -6.148,0.911 -2.313,0.23 -4.52,0.339 -6.637,0.339"
         style="fill:#231f20;fill-opacity:1;fill-rule:nonzero;stroke:none"
         id="path78" />
      <path
         d="m 902.223,973.109 -6.34,-22.879 -15.098,-6.25 v -7.789 h 15 v -62.5 c 0,-8.269 1.356,-14.75 4.082,-19.421 2.727,-4.68 6.363,-8 10.914,-9.961 4.551,-1.95 9.617,-2.93 15.192,-2.93 3.14,0 6.363,0.293 9.664,0.871 3.304,0.57 5.883,1.281 7.738,2.109 v 12.403 c -1.727,-0.641 -3.973,-1.184 -6.727,-1.633 -2.753,-0.449 -5.449,-0.668 -8.078,-0.668 -5.062,0 -9.121,1.629 -12.164,4.898 -3.043,3.27 -4.566,8.211 -4.566,14.813 v 62.019 h 30.867 v 12.5 H 911.84 v 24.418 h -9.617"
         style="fill:#231f20;fill-opacity:1;fill-rule:nonzero;stroke:none"
         id="path80" />
      <path
         d="m 1019.41,844.84 c 6.25,2.308 11.06,5.75 14.42,10.34 3.37,4.582 5.05,10.242 5.05,16.968 0,5.774 -1.3,10.493 -3.89,14.184 -2.6,3.688 -6.3,6.828 -11.11,9.418 -4.81,2.602 -10.51,5.121 -17.11,7.551 -6.61,2.5 -11.926,4.679 -15.965,6.539 -4.035,1.859 -6.973,3.851 -8.801,5.961 -1.828,2.121 -2.734,4.808 -2.734,8.078 0,4.23 1.968,7.562 5.91,10 3.941,2.441 9.597,3.652 16.97,3.652 5.13,0 10.16,-0.64 15.1,-1.922 4.93,-1.281 9.58,-2.847 13.94,-4.711 l 5.38,12.793 c -4.8,2.11 -9.98,3.789 -15.53,5.047 -5.54,1.25 -11.48,1.871 -17.83,1.871 -11.733,0 -21.206,-2.39 -28.417,-7.16 -7.211,-4.777 -10.816,-11.621 -10.816,-20.527 0,-5.84 1.332,-10.582 3.992,-14.231 2.656,-3.652 6.441,-6.75 11.344,-9.281 4.906,-2.531 10.722,-5.082 17.453,-7.64 6.794,-2.508 12.114,-4.801 15.964,-6.879 3.84,-2.082 6.58,-4.231 8.22,-6.442 1.63,-2.219 2.45,-4.758 2.45,-7.648 0,-5.063 -2.05,-9.071 -6.15,-12.02 -4.11,-2.941 -10.71,-4.422 -19.812,-4.422 -6.219,0 -12.305,0.871 -18.266,2.602 -5.961,1.73 -11.094,3.648 -15.387,5.769 v -14.718 c 4.039,-2.114 8.75,-3.742 14.137,-4.903 5.383,-1.16 11.758,-1.73 19.133,-1.73 8.655,0 16.105,1.16 22.355,3.461"
         style="fill:#231f20;fill-opacity:1;fill-rule:nonzero;stroke:none"
         id="path82" />
      <path
         d="m 1128.18,842.82 c 4.33,0.961 8.25,2.34 11.78,4.141 v 14.23 c -3.66,-1.609 -7.73,-3 -12.21,-4.191 -4.49,-1.18 -9.52,-1.77 -15.1,-1.77 -6.98,0 -12.8,1.579 -17.45,4.75 -4.65,3.18 -8.14,7.782 -10.48,13.809 -2.34,6.02 -3.51,13.301 -3.51,21.82 0,8.911 1.2,16.411 3.6,22.5 2.41,6.09 6.03,10.711 10.87,13.852 4.84,3.141 10.91,4.711 18.22,4.711 3.66,0 7.58,-0.524 11.78,-1.543 4.2,-1.027 7.9,-2.18 11.11,-3.457 l 4.81,13.359 c -3.15,1.598 -7.17,2.938 -12.07,3.989 -4.91,1.062 -9.99,1.589 -15.25,1.589 -9.55,0 -18.07,-1.949 -25.57,-5.871 -7.5,-3.906 -13.38,-9.91 -17.65,-18.027 -4.26,-8.102 -6.39,-18.539 -6.39,-31.289 0,-12.184 2.02,-22.281 6.06,-30.293 4.04,-8.008 9.68,-13.969 16.92,-17.879 7.24,-3.918 15.61,-5.871 25.1,-5.871 5.96,0 11.11,0.48 15.43,1.441"
         style="fill:#231f20;fill-opacity:1;fill-rule:nonzero;stroke:none"
         id="path84" />
      <path
         d="m 1186.81,898.398 c 0,8.332 1.01,15.383 3.03,21.153 2.02,5.769 5.35,10.148 10,13.129 4.65,2.98 10.88,4.468 18.7,4.468 8.27,0 14.41,-2.179 18.41,-6.539 4.01,-4.359 6.01,-10.929 6.01,-19.711 v -67.597 h 15.78 v 68.66 c 0,8.969 -1.43,16.277 -4.28,21.918 -2.85,5.641 -7.12,9.812 -12.8,12.5 -5.67,2.691 -12.73,4.043 -21.2,4.043 -4.8,0 -9.36,-0.66 -13.65,-1.973 -4.3,-1.32 -8.13,-3.238 -11.49,-5.769 -3.37,-2.532 -6.14,-5.66 -8.32,-9.379 h -1.06 c 0.32,2.179 0.55,4.57 0.68,7.168 0.13,2.59 0.19,5.172 0.19,7.742 v 44.711 h -15.96 V 843.301 h 15.96 v 55.097"
         style="fill:#231f20;fill-opacity:1;fill-rule:nonzero;stroke:none"
         id="path86" />
      <path
         d="m 1311.93,858.691 c -3.65,2.879 -5.47,7.34 -5.47,13.36 0,6.929 2.69,12.277 8.07,16.058 5.39,3.782 14.64,5.93 27.79,6.442 l 16.06,0.679 v -9.71 c 0,-10.391 -2.98,-18.18 -8.94,-23.372 -5.97,-5.187 -13.63,-7.789 -22.99,-7.789 -6.02,0 -10.86,1.442 -14.52,4.332 z m 37.51,-9.472 c 3.2,2.59 6.27,5.812 9.23,9.66 h 0.76 l 3.08,-15.578 h 11.63 v 71.64 c 0,12.368 -3.04,21.379 -9.13,27.02 -6.09,5.641 -15.42,8.461 -27.98,8.461 -6.8,0 -13.27,-0.871 -19.43,-2.602 -6.15,-1.73 -11.59,-3.808 -16.34,-6.25 l 4.91,-12.109 c 4.48,2.168 9.23,4.07 14.22,5.668 5.01,1.601 10.26,2.402 15.78,2.402 7.11,0 12.62,-1.832 16.53,-5.48 3.91,-3.653 5.87,-10.031 5.87,-19.129 v -6.442 l -18.17,-0.769 c -17.06,-0.52 -29.75,-3.602 -38.08,-9.231 -8.33,-5.648 -12.5,-13.718 -12.5,-24.23 0,-6.988 1.43,-12.762 4.28,-17.309 2.85,-4.55 6.76,-7.953 11.73,-10.203 4.96,-2.238 10.66,-3.359 17.07,-3.359 6.08,0 11.23,0.66 15.43,1.973 4.2,1.32 7.9,3.269 11.11,5.867"
         style="fill:#231f20;fill-opacity:1;fill-rule:nonzero;stroke:none"
         id="path88" />
      <path
         d="m 1417.73,843.301 h 15.96 v 92.89 h 26.25 v 12.5 h -26.25 v 7.688 c 0,8.402 1.45,14.57 4.38,18.512 2.91,3.941 7.41,5.91 13.5,5.91 2.82,0 5.59,-0.301 8.32,-0.91 2.72,-0.61 5.17,-1.27 7.36,-1.969 l 4.13,12.59 c -2.56,0.898 -5.53,1.699 -8.9,2.41 -3.36,0.699 -7.06,1.058 -11.1,1.058 -7.18,0 -13.27,-1.32 -18.27,-3.941 -5,-2.629 -8.81,-6.719 -11.44,-12.269 -2.63,-5.54 -3.94,-12.739 -3.94,-21.579 v -7.019 l -18.66,-5.293 v -7.688 h 18.66 v -92.89"
         style="fill:#231f20;fill-opacity:1;fill-rule:nonzero;stroke:none"
         id="path90" />
      <path
         d="m 1519.29,854.461 c -5.07,0 -9.12,1.629 -12.17,4.898 -3.04,3.27 -4.57,8.211 -4.57,14.813 v 62.019 h 30.87 v 12.5 h -30.87 v 24.418 h -9.61 l -6.34,-22.879 -15.1,-6.25 v -7.789 h 15 v -62.5 c 0,-8.269 1.36,-14.75 4.08,-19.421 2.73,-4.68 6.36,-8 10.92,-9.961 4.55,-1.95 9.61,-2.93 15.19,-2.93 3.14,0 6.36,0.293 9.66,0.871 3.31,0.57 5.89,1.281 7.74,2.109 v 12.403 c -1.73,-0.641 -3.97,-1.184 -6.73,-1.633 -2.75,-0.449 -5.44,-0.668 -8.07,-0.668"
         style="fill:#231f20;fill-opacity:1;fill-rule:nonzero;stroke:none"
         id="path92" />
      <path
         d="m 1705,945.609 c 4.2,-8.199 6.3,-18.621 6.3,-31.25 0,-18.91 -4.86,-33.14 -14.57,-42.687 -9.71,-9.551 -24.25,-14.332 -43.61,-14.332 h -19.9 v 112.601 h 23.56 c 11.73,0 21.65,-2.011 29.76,-6.011 8.11,-4.008 14.26,-10.11 18.46,-18.321 z m -88.13,38.27 V 843.301 h 38.18 c 15.57,0 28.83,2.679 39.76,8.031 10.92,5.359 19.27,13.328 25.04,23.949 5.77,10.598 8.66,23.828 8.66,39.66 0,15.059 -2.81,27.707 -8.42,37.93 -5.61,10.219 -13.57,17.949 -23.89,23.168 -10.32,5.231 -22.63,7.84 -36.92,7.84 h -42.41"
         style="fill:#231f20;fill-opacity:1;fill-rule:nonzero;stroke:none"
         id="path94" />
      <path
         d="m 1816.23,935.609 c 2.11,-0.257 4.04,-0.609 5.77,-1.058 l 2.01,14.808 c -1.79,0.391 -3.84,0.692 -6.15,0.911 -2.31,0.23 -4.52,0.339 -6.63,0.339 -5.01,0 -9.54,-0.961 -13.61,-2.89 -4.07,-1.918 -7.65,-4.5 -10.72,-7.731 -3.08,-3.238 -5.71,-6.816 -7.88,-10.718 h -0.68 l -1.73,19.421 h -13.27 v -105.39 h 16.06 v 56.539 c 0,5.449 0.8,10.398 2.41,14.859 1.59,4.449 3.81,8.27 6.63,11.442 2.82,3.168 6.1,5.609 9.86,7.308 3.74,1.692 7.73,2.551 11.97,2.551 1.85,0 3.84,-0.129 5.96,-0.391"
         style="fill:#231f20;fill-opacity:1;fill-rule:nonzero;stroke:none"
         id="path96" />
      <path
         d="m 1860.77,905.801 c 0.96,10 3.97,17.789 9.03,23.371 5.07,5.578 11.87,8.359 20.39,8.359 6.03,0 10.96,-1.332 14.81,-3.98 3.85,-2.672 6.72,-6.391 8.61,-11.16 1.89,-4.782 2.86,-10.301 2.93,-16.59 z m 52.69,38.847 c -6.41,3.973 -14.1,5.961 -23.08,5.961 -9.42,0 -17.61,-2.25 -24.56,-6.73 -6.96,-4.488 -12.34,-10.879 -16.16,-19.18 -3.81,-8.301 -5.72,-18.129 -5.72,-29.469 0,-11.609 2.09,-21.41 6.25,-29.429 4.17,-8.012 10.02,-14.082 17.55,-18.219 7.53,-4.133 16.36,-6.203 26.49,-6.203 7.11,0 13.28,0.551 18.51,1.633 5.22,1.097 10.5,2.82 15.82,5.199 v 14.039 c -5.52,-2.379 -10.83,-4.172 -15.96,-5.391 -5.14,-1.218 -11.03,-1.828 -17.7,-1.828 -10.83,0 -19.23,3.239 -25.19,9.719 -5.96,6.469 -9.04,15.891 -9.23,28.27 h 72.79 v 9.902 c 0,9.547 -1.7,17.898 -5.1,25.047 -3.39,7.14 -8.3,12.703 -14.71,16.679"
         style="fill:#231f20;fill-opacity:1;fill-rule:nonzero;stroke:none"
         id="path98" />
      <path
         d="m 1970.45,943.449 c -7.21,-4.777 -10.81,-11.621 -10.81,-20.527 0,-5.84 1.33,-10.582 3.99,-14.231 2.66,-3.652 6.44,-6.75 11.34,-9.281 4.92,-2.531 10.72,-5.082 17.46,-7.64 6.79,-2.508 12.1,-4.801 15.95,-6.879 3.85,-2.082 6.59,-4.231 8.23,-6.442 1.64,-2.219 2.44,-4.758 2.44,-7.648 0,-5.063 -2.05,-9.071 -6.13,-12.02 -4.11,-2.941 -10.71,-4.422 -19.82,-4.422 -6.22,0 -12.31,0.871 -18.27,2.602 -5.96,1.73 -11.09,3.648 -15.38,5.769 v -14.718 c 4.04,-2.114 8.75,-3.742 14.13,-4.903 5.39,-1.16 11.76,-1.73 19.13,-1.73 8.66,0 16.1,1.16 22.36,3.461 6.25,2.308 11.06,5.75 14.42,10.34 3.36,4.582 5.06,10.242 5.06,16.968 0,5.774 -1.31,10.493 -3.91,14.184 -2.6,3.688 -6.29,6.828 -11.1,9.418 -4.81,2.602 -10.51,5.121 -17.12,7.551 -6.6,2.5 -11.92,4.679 -15.95,6.539 -4.04,1.859 -6.97,3.851 -8.81,5.961 -1.82,2.121 -2.73,4.808 -2.73,8.078 0,4.23 1.97,7.562 5.92,10 3.92,2.441 9.59,3.652 16.96,3.652 5.12,0 10.16,-0.64 15.11,-1.922 4.92,-1.281 9.57,-2.847 13.93,-4.711 l 5.38,12.793 c -4.81,2.11 -9.97,3.789 -15.52,5.047 -5.55,1.25 -11.49,1.871 -17.85,1.871 -11.72,0 -21.2,-2.39 -28.41,-7.16"
         style="fill:#231f20;fill-opacity:1;fill-rule:nonzero;stroke:none"
         id="path100" />
      <path
         d="m 2084.14,865.23 c -4.84,7.051 -7.26,17.051 -7.26,30 0,13.008 2.43,23.282 7.31,30.821 4.87,7.519 12.21,11.289 22.01,11.289 11.74,0 19.83,-3.59 24.29,-10.77 4.45,-7.179 6.68,-17.461 6.68,-30.859 v -2.891 c 0,-12.629 -2.35,-22.148 -7.02,-28.558 -4.68,-6.41 -12.66,-9.614 -23.95,-9.614 -9.87,0 -17.23,3.532 -22.06,10.582 z m 34.42,-21.589 c 4.2,1.507 7.82,3.539 10.87,6.109 3.04,2.559 5.56,5.41 7.54,8.551 h 0.68 l 2.4,-15 h 12.89 v 149.621 h -15.97 v -42.211 c 0,-2.18 0.13,-5 0.39,-8.461 0.26,-3.469 0.51,-6.191 0.77,-8.18 h -1.16 c -2.05,3.141 -4.58,5.95 -7.59,8.418 -3.02,2.461 -6.6,4.434 -10.77,5.91 -4.17,1.473 -9.04,2.211 -14.62,2.211 -13.2,0 -23.78,-4.629 -31.72,-13.89 -7.96,-9.27 -11.93,-22.969 -11.93,-41.11 0,-17.949 3.89,-31.468 11.68,-40.578 7.79,-9.101 18.35,-13.652 31.69,-13.652 5.7,0 10.65,0.762 14.85,2.262"
         style="fill:#231f20;fill-opacity:1;fill-rule:nonzero;stroke:none"
         id="path102" />
      <path
         d="m 2203.64,905.801 c 0.95,10 3.96,17.789 9.04,23.371 5.06,5.578 11.85,8.359 20.38,8.359 6.02,0 10.96,-1.332 14.8,-3.98 3.85,-2.672 6.72,-6.391 8.61,-11.16 1.89,-4.782 2.86,-10.301 2.93,-16.59 z m 52.69,38.847 c -6.41,3.973 -14.11,5.961 -23.09,5.961 -9.42,0 -17.6,-2.25 -24.56,-6.73 -6.96,-4.488 -12.34,-10.879 -16.15,-19.18 -3.82,-8.301 -5.72,-18.129 -5.72,-29.469 0,-11.609 2.08,-21.41 6.24,-29.429 4.18,-8.012 10.02,-14.082 17.55,-18.219 7.54,-4.133 16.36,-6.203 26.49,-6.203 7.12,0 13.29,0.551 18.51,1.633 5.23,1.097 10.5,2.82 15.82,5.199 v 14.039 c -5.51,-2.379 -10.83,-4.172 -15.95,-5.391 -5.13,-1.218 -11.04,-1.828 -17.7,-1.828 -10.84,0 -19.23,3.239 -25.19,9.719 -5.96,6.469 -9.04,15.891 -9.24,28.27 h 72.79 v 9.902 c 0,9.547 -1.7,17.898 -5.09,25.047 -3.4,7.14 -8.3,12.703 -14.71,16.679"
         style="fill:#231f20;fill-opacity:1;fill-rule:nonzero;stroke:none"
         id="path104" />
      <path
         d="m 2359.14,950.609 c -4.75,0 -9.26,-0.66 -13.55,-1.968 -4.3,-1.321 -8.18,-3.243 -11.64,-5.77 -3.46,-2.531 -6.31,-5.66 -8.56,-9.371 h -0.86 l -2.4,15.191 h -12.89 v -105.39 h 15.96 v 55.187 c 0,12.571 2.37,22.153 7.12,28.762 4.74,6.602 12.95,9.898 24.61,9.898 8.27,0 14.41,-2.179 18.41,-6.539 4.01,-4.359 6.01,-10.929 6.01,-19.711 v -67.597 h 15.78 v 68.66 c 0,13.519 -3.21,23.34 -9.62,29.469 -6.41,6.121 -15.87,9.179 -28.37,9.179"
         style="fill:#231f20;fill-opacity:1;fill-rule:nonzero;stroke:none"
         id="path106" />
      <path
         d="m 657.051,616.371 c 0,-7.383 -1.328,-13.871 -3.992,-19.48 -2.657,-5.61 -6.731,-9.969 -12.211,-13.071 -5.481,-3.121 -12.516,-4.672 -21.106,-4.672 -12.562,0 -22,3.243 -28.312,9.711 -6.321,6.481 -9.477,15.68 -9.477,27.602 v 91.059 h -16.437 v -90.579 c 0,-15.769 4.531,-28.359 13.605,-37.793 9.067,-9.418 22.289,-14.136 39.664,-14.136 12.176,0 22.305,2.226 30.379,6.687 8.082,4.461 14.121,10.563 18.129,18.321 4.004,7.761 6.008,16.601 6.008,26.539 v 90.961 h -16.25 v -91.149"
         style="fill:#231f20;fill-opacity:1;fill-rule:nonzero;stroke:none"
         id="path108" />
      <path
         d="m 761.953,674.25 c -4.746,0 -9.265,-0.66 -13.562,-1.969 -4.293,-1.32 -8.172,-3.242 -11.633,-5.769 -3.465,-2.543 -6.317,-5.66 -8.559,-9.383 h -0.867 L 724.93,672.32 H 712.047 V 566.941 h 15.961 v 55.188 c 0,12.57 2.371,22.152 7.113,28.75 4.746,6.609 12.949,9.91 24.621,9.91 8.27,0 14.406,-2.187 18.414,-6.539 4.004,-4.359 6.012,-10.93 6.012,-19.711 v -67.598 h 15.77 v 68.661 c 0,13.519 -3.211,23.339 -9.618,29.457 -6.414,6.132 -15.867,9.191 -28.367,9.191"
         style="fill:#231f20;fill-opacity:1;fill-rule:nonzero;stroke:none"
         id="path110" />
      <path
         d="m 836.758,566.941 h 15.961 V 672.32 H 836.758 V 566.941"
         style="fill:#231f20;fill-opacity:1;fill-rule:nonzero;stroke:none"
         id="path112" />
      <path
         d="m 844.934,711.75 c -2.758,0 -5.051,-0.852 -6.875,-2.551 -1.829,-1.699 -2.743,-4.34 -2.743,-7.929 0,-3.532 0.914,-6.161 2.743,-7.891 1.824,-1.731 4.117,-2.59 6.875,-2.59 2.625,0 4.882,0.859 6.773,2.59 1.891,1.73 2.84,4.359 2.84,7.891 0,3.589 -0.949,6.23 -2.84,7.929 -1.891,1.699 -4.148,2.551 -6.773,2.551"
         style="fill:#231f20;fill-opacity:1;fill-rule:nonzero;stroke:none"
         id="path114" />
      <path
         d="m 931.66,608.57 c -1.476,-4.289 -3.113,-9.082 -4.906,-14.371 -1.793,-5.289 -3.078,-9.527 -3.844,-12.738 h -0.676 c -0.64,3.211 -1.793,7.43 -3.457,12.687 -1.672,5.262 -3.304,10.063 -4.906,14.422 l -23.176,63.75 h -17.113 l 40,-105.379 h 18.27 L 971.949,672.32 H 954.836 L 931.66,608.57"
         style="fill:#231f20;fill-opacity:1;fill-rule:nonzero;stroke:none"
         id="path116" />
      <path
         d="m 1003.68,629.441 c 0.96,10 3.97,17.789 9.03,23.36 5.07,5.578 11.86,8.371 20.39,8.371 6.02,0 10.96,-1.332 14.8,-3.992 3.85,-2.66 6.72,-6.379 8.61,-11.149 1.89,-4.781 2.87,-10.312 2.94,-16.59 z m 52.69,38.848 c -6.41,3.973 -14.1,5.961 -23.08,5.961 -9.42,0 -17.61,-2.25 -24.57,-6.73 -6.95,-4.489 -12.337,-10.879 -16.154,-19.188 -3.808,-8.301 -5.714,-18.121 -5.714,-29.473 0,-11.597 2.082,-21.41 6.25,-29.418 4.16,-8.011 10.018,-14.089 17.548,-18.222 7.53,-4.137 16.36,-6.207 26.49,-6.207 7.11,0 13.28,0.547 18.51,1.636 5.22,1.09 10.49,2.821 15.81,5.204 v 14.027 c -5.51,-2.367 -10.83,-4.16 -15.96,-5.379 -5.13,-1.219 -11.02,-1.828 -17.69,-1.828 -10.83,0 -19.23,3.238 -25.19,9.707 -5.96,6.48 -9.04,15.902 -9.23,28.269 h 72.78 v 9.911 c 0,9.55 -1.7,17.902 -5.09,25.043 -3.4,7.148 -8.3,12.707 -14.71,16.687"
         style="fill:#231f20;fill-opacity:1;fill-rule:nonzero;stroke:none"
         id="path118" />
      <path
         d="m 1155.12,674.25 c -5.01,0 -9.54,-0.961 -13.61,-2.891 -4.07,-1.918 -7.65,-4.5 -10.72,-7.738 -3.08,-3.23 -5.71,-6.812 -7.89,-10.723 h -0.67 l -1.73,19.422 h -13.27 V 566.941 h 16.06 v 56.539 c 0,5.45 0.8,10.399 2.4,14.852 1.6,4.457 3.81,8.277 6.63,11.449 2.83,3.168 6.11,5.598 9.86,7.309 3.75,1.691 7.74,2.551 11.97,2.551 1.86,0 3.85,-0.141 5.96,-0.391 2.12,-0.262 4.04,-0.609 5.77,-1.059 L 1167.9,673 c -1.79,0.379 -3.84,0.691 -6.15,0.91 -2.31,0.231 -4.52,0.34 -6.63,0.34"
         style="fill:#231f20;fill-opacity:1;fill-rule:nonzero;stroke:none"
         id="path120" />
      <path
         d="m 1244.82,619.391 c -4.8,2.597 -10.51,5.121 -17.11,7.55 -6.6,2.5 -11.92,4.68 -15.96,6.539 -4.04,1.86 -6.97,3.852 -8.8,5.961 -1.83,2.118 -2.74,4.809 -2.74,8.079 0,4.23 1.97,7.562 5.91,10 3.95,2.429 9.6,3.652 16.97,3.652 5.13,0 10.17,-0.641 15.1,-1.922 4.93,-1.289 9.59,-2.852 13.95,-4.719 l 5.38,12.801 c -4.8,2.109 -9.98,3.789 -15.53,5.039 -5.55,1.25 -11.49,1.879 -17.84,1.879 -11.73,0 -21.2,-2.391 -28.41,-7.16 -7.22,-4.781 -10.82,-11.621 -10.82,-20.531 0,-5.84 1.33,-10.579 3.99,-14.239 2.66,-3.648 6.45,-6.742 11.35,-9.269 4.9,-2.539 10.72,-5.09 17.45,-7.653 6.79,-2.5 12.11,-4.789 15.96,-6.867 3.85,-2.09 6.59,-4.23 8.22,-6.449 1.63,-2.211 2.46,-4.75 2.46,-7.641 0,-5.062 -2.06,-9.07 -6.16,-12.019 -4.1,-2.953 -10.71,-4.422 -19.81,-4.422 -6.22,0 -12.31,0.859 -18.27,2.602 -5.96,1.73 -11.09,3.648 -15.38,5.757 v -14.711 c 4.04,-2.109 8.75,-3.75 14.13,-4.898 5.39,-1.16 11.76,-1.738 19.14,-1.738 8.65,0 16.11,1.16 22.35,3.468 6.25,2.309 11.07,5.75 14.43,10.329 3.37,4.589 5.05,10.242 5.05,16.98 0,5.77 -1.3,10.492 -3.89,14.18 -2.6,3.679 -6.3,6.832 -11.12,9.422"
         style="fill:#231f20;fill-opacity:1;fill-rule:nonzero;stroke:none"
         id="path122" />
      <path
         d="m 1289.44,566.941 h 15.96 V 672.32 h -15.96 V 566.941"
         style="fill:#231f20;fill-opacity:1;fill-rule:nonzero;stroke:none"
         id="path124" />
      <path
         d="m 1297.62,711.75 c -2.76,0 -5.05,-0.852 -6.88,-2.551 -1.83,-1.699 -2.74,-4.34 -2.74,-7.929 0,-3.532 0.91,-6.161 2.74,-7.891 1.83,-1.731 4.12,-2.59 6.88,-2.59 2.62,0 4.88,0.859 6.77,2.59 1.89,1.73 2.84,4.359 2.84,7.891 0,3.589 -0.95,6.23 -2.84,7.929 -1.89,1.699 -4.15,2.551 -6.77,2.551"
         style="fill:#231f20;fill-opacity:1;fill-rule:nonzero;stroke:none"
         id="path126" />
      <path
         d="m 1377.13,578.102 c -5.06,0 -9.12,1.628 -12.16,4.898 -3.05,3.27 -4.57,8.199 -4.57,14.801 v 62.031 h 30.87 v 12.488 h -30.87 v 24.43 h -9.62 l -6.34,-22.891 -15.09,-6.25 v -7.777 h 14.99 v -62.5 c 0,-8.281 1.36,-14.75 4.09,-19.422 2.73,-4.691 6.36,-8 10.91,-9.961 4.55,-1.961 9.62,-2.937 15.19,-2.937 3.15,0 6.37,0.289 9.67,0.867 3.3,0.582 5.88,1.281 7.74,2.109 v 12.41 c -1.73,-0.636 -3.97,-1.187 -6.73,-1.628 -2.76,-0.45 -5.45,-0.668 -8.08,-0.668"
         style="fill:#231f20;fill-opacity:1;fill-rule:nonzero;stroke:none"
         id="path128" />
      <path
         d="m 1459.82,611.27 c -1.92,-5.45 -3.72,-10.79 -5.39,-16.008 -1.66,-5.231 -2.94,-9.442 -3.84,-12.653 h -0.68 c -0.51,2.821 -1.21,5.743 -2.11,8.762 -0.9,3 -1.92,6.16 -3.08,9.461 -1.15,3.309 -2.4,6.75 -3.75,10.34 l -23.27,61.148 h -17.11 l 42.21,-105.57 -5.77,-14.809 c -1.54,-3.98 -3.37,-7.41 -5.48,-10.293 -2.12,-2.886 -4.63,-5.078 -7.55,-6.589 -2.92,-1.5 -6.36,-2.258 -10.33,-2.258 -2.18,0 -4.28,0.129 -6.3,0.379 -2.02,0.261 -3.74,0.55 -5.15,0.871 v -12.789 c 1.67,-0.453 3.66,-0.852 5.96,-1.203 2.31,-0.348 4.97,-0.528 7.99,-0.528 6.53,0 12.11,1.301 16.73,3.899 4.61,2.59 8.54,6.3 11.78,11.101 3.23,4.809 6.07,10.449 8.5,16.93 l 45.87,120.859 h -17.21 l -22.02,-61.05"
         style="fill:#231f20;fill-opacity:1;fill-rule:nonzero;stroke:none"
         id="path130" />
      <path
         d="m 1645.87,597.801 c -2.25,-6.211 -5.72,-11.02 -10.43,-14.422 -4.72,-3.391 -10.73,-5.09 -18.03,-5.09 -7.37,0 -13.4,1.699 -18.08,5.09 -4.68,3.402 -8.14,8.211 -10.38,14.422 -2.25,6.219 -3.37,13.558 -3.37,22.031 0,12.816 2.55,22.848 7.65,30.09 5.09,7.238 13.12,10.867 24.08,10.867 7.44,0 13.5,-1.668 18.17,-5 4.68,-3.34 8.14,-8.07 10.39,-14.18 2.24,-6.129 3.37,-13.39 3.37,-21.777 0,-8.473 -1.13,-15.812 -3.37,-22.031 z m -2.93,70 c -7.21,4.301 -15.63,6.449 -25.24,6.449 -10.07,0 -18.74,-2.129 -26.01,-6.398 -7.28,-4.262 -12.87,-10.454 -16.78,-18.551 -3.91,-8.11 -5.86,-17.93 -5.86,-29.469 0,-8.66 1.16,-16.383 3.5,-23.184 2.34,-6.789 5.64,-12.527 9.91,-17.207 4.26,-4.679 9.32,-8.25 15.19,-10.73 5.87,-2.461 12.32,-3.699 19.37,-3.699 7.57,0 14.34,1.238 20.34,3.699 5.99,2.48 11.1,6.051 15.34,10.73 4.23,4.68 7.46,10.418 9.71,17.207 2.24,6.801 3.37,14.524 3.37,23.184 0,11.469 -2.01,21.258 -6.01,29.367 -4.01,8.11 -9.62,14.313 -16.83,18.602"
         style="fill:#231f20;fill-opacity:1;fill-rule:nonzero;stroke:none"
         id="path132" />
      <path
         d="m 1735.68,717.621 c -7.18,0 -13.28,-1.32 -18.28,-3.949 -4.99,-2.633 -8.81,-6.711 -11.44,-12.262 -2.63,-5.551 -3.94,-12.738 -3.94,-21.59 v -7.011 l -18.66,-5.289 v -7.688 h 18.66 v -92.891 h 15.96 v 92.891 h 26.26 v 12.488 h -26.26 v 7.7 c 0,8.39 1.46,14.562 4.38,18.511 2.91,3.938 7.42,5.91 13.51,5.91 2.82,0 5.59,-0.3 8.32,-0.91 2.72,-0.609 5.17,-1.269 7.36,-1.972 l 4.13,12.589 c -2.56,0.903 -5.53,1.704 -8.9,2.411 -3.36,0.703 -7.06,1.062 -11.1,1.062"
         style="fill:#231f20;fill-opacity:1;fill-rule:nonzero;stroke:none"
         id="path134" />
      <path
         d="m 1845,626.07 16.73,44.328 c 0.52,1.543 1.12,3.411 1.83,5.633 0.7,2.207 1.42,4.61 2.16,7.207 0.74,2.594 1.43,5.211 2.07,7.844 0.58,-1.73 1.31,-4.012 2.21,-6.832 0.9,-2.82 1.78,-5.539 2.64,-8.168 0.87,-2.633 1.49,-4.523 1.88,-5.684 l 16.44,-44.328 z m 15.77,82.02 -55,-141.149 h 16.54 l 17.21,44.618 h 56.35 l 17.31,-44.618 h 16.92 l -54.62,141.149 h -14.71"
         style="fill:#231f20;fill-opacity:1;fill-rule:nonzero;stroke:none"
         id="path136" />
      <path
         d="m 2024.08,598.34 c -2.13,-6.32 -5.4,-11.238 -9.76,-14.758 -4.35,-3.531 -9.81,-5.293 -16.33,-5.293 -7.65,0 -13.7,1.602 -18.24,4.801 -4.51,3.211 -7.75,7.89 -9.7,14.051 -1.96,6.148 -2.93,13.679 -2.93,22.589 v 3.079 c 0.12,8.461 1.21,15.492 3.27,21.101 2.04,5.61 5.3,9.82 9.75,12.649 4.46,2.82 10.34,4.23 17.65,4.23 10.01,0 17.41,-3.68 22.26,-11.008 4.83,-7.34 7.25,-17.23 7.25,-29.672 0,-8.199 -1.07,-15.461 -3.22,-21.769 z m -23.5,75.91 c -5.84,0 -10.88,-0.789 -15.14,-2.359 -4.27,-1.571 -7.88,-3.68 -10.82,-6.34 -2.95,-2.672 -5.46,-5.602 -7.5,-8.801 h -0.78 l -2.11,15.57 h -13.17 v -152.5 h 16.06 v 43.27 c 0,2.629 -0.15,5.711 -0.44,9.242 -0.29,3.52 -0.53,6.527 -0.72,9.027 h 1.16 c 1.98,-2.949 4.48,-5.668 7.5,-8.168 3.01,-2.5 6.64,-4.492 10.86,-5.972 4.24,-1.469 9.14,-2.207 14.71,-2.207 8.86,0 16.52,2.09 23.03,6.258 6.5,4.16 11.55,10.32 15.15,18.46 3.59,8.141 5.39,18.2 5.39,30.192 0,18.137 -3.91,31.726 -11.75,40.769 -7.82,9.039 -18.29,13.559 -31.43,13.559"
         style="fill:#231f20;fill-opacity:1;fill-rule:nonzero;stroke:none"
         id="path138" />
      <path
         d="m 2148.51,598.34 c -2.14,-6.32 -5.39,-11.238 -9.75,-14.758 -4.36,-3.531 -9.81,-5.293 -16.35,-5.293 -7.63,0 -13.7,1.602 -18.22,4.801 -4.52,3.211 -7.76,7.89 -9.71,14.051 -1.96,6.148 -2.94,13.679 -2.94,22.589 v 3.079 c 0.13,8.461 1.23,15.492 3.28,21.101 2.05,5.61 5.3,9.82 9.76,12.649 4.45,2.82 10.33,4.23 17.64,4.23 10,0 17.42,-3.68 22.26,-11.008 4.84,-7.34 7.26,-17.23 7.26,-29.672 0,-8.199 -1.08,-15.461 -3.23,-21.769 z m -23.5,75.91 c -5.83,0 -10.88,-0.789 -15.14,-2.359 -4.27,-1.571 -7.88,-3.68 -10.82,-6.34 -2.95,-2.672 -5.45,-5.602 -7.51,-8.801 h -0.76 l -2.12,15.57 h -13.17 v -152.5 h 16.05 v 43.27 c 0,2.629 -0.13,5.711 -0.43,9.242 -0.29,3.52 -0.52,6.527 -0.72,9.027 h 1.15 c 2,-2.949 4.49,-5.668 7.51,-8.168 3.01,-2.5 6.63,-4.492 10.87,-5.972 4.23,-1.469 9.13,-2.207 14.7,-2.207 8.86,0 16.53,2.09 23.03,6.258 6.51,4.16 11.55,10.32 15.15,18.46 3.59,8.141 5.38,18.2 5.38,30.192 0,18.137 -3.9,31.726 -11.73,40.769 -7.82,9.039 -18.3,13.559 -31.44,13.559"
         style="fill:#231f20;fill-opacity:1;fill-rule:nonzero;stroke:none"
         id="path140" />
      <path
         d="m 2199.91,566.941 h 16.06 v 149.618 h -16.06 V 566.941"
         style="fill:#231f20;fill-opacity:1;fill-rule:nonzero;stroke:none"
         id="path142" />
      <path
         d="m 2253.56,566.941 h 15.96 V 672.32 h -15.96 V 566.941"
         style="fill:#231f20;fill-opacity:1;fill-rule:nonzero;stroke:none"
         id="path144" />
      <path
         d="m 2261.73,711.75 c -2.76,0 -5.04,-0.852 -6.87,-2.551 -1.83,-1.699 -2.75,-4.34 -2.75,-7.929 0,-3.532 0.92,-6.161 2.75,-7.891 1.83,-1.731 4.11,-2.59 6.87,-2.59 2.63,0 4.89,0.859 6.78,2.59 1.9,1.73 2.83,4.359 2.83,7.891 0,3.589 -0.93,6.23 -2.83,7.929 -1.89,1.699 -4.15,2.551 -6.78,2.551"
         style="fill:#231f20;fill-opacity:1;fill-rule:nonzero;stroke:none"
         id="path146" />
      <path
         d="m 2318.17,629.441 c 0.96,10 3.97,17.789 9.04,23.36 5.06,5.578 11.85,8.371 20.38,8.371 6.02,0 10.97,-1.332 14.81,-3.992 3.85,-2.66 6.71,-6.379 8.61,-11.149 1.88,-4.781 2.86,-10.312 2.93,-16.59 z m 52.69,38.848 c -6.41,3.973 -14.1,5.961 -23.08,5.961 -9.42,0 -17.61,-2.25 -24.57,-6.73 -6.95,-4.489 -12.34,-10.879 -16.15,-19.188 -3.81,-8.301 -5.72,-18.121 -5.72,-29.473 0,-11.597 2.08,-21.41 6.25,-29.418 4.17,-8.011 10.01,-14.089 17.55,-18.222 7.53,-4.137 16.36,-6.207 26.49,-6.207 7.11,0 13.29,0.547 18.51,1.636 5.22,1.09 10.49,2.821 15.82,5.204 v 14.027 c -5.51,-2.367 -10.84,-4.16 -15.96,-5.379 -5.13,-1.219 -11.03,-1.828 -17.7,-1.828 -10.83,0 -19.23,3.238 -25.19,9.707 -5.96,6.48 -9.04,15.902 -9.23,28.269 h 72.79 v 9.911 c 0,9.55 -1.7,17.902 -5.09,25.043 -3.4,7.148 -8.31,12.707 -14.72,16.687"
         style="fill:#231f20;fill-opacity:1;fill-rule:nonzero;stroke:none"
         id="path148" />
      <path
         d="m 2492.69,616.461 c 0,-12.629 -2.34,-22.152 -7.01,-28.563 -4.68,-6.41 -12.67,-9.609 -23.96,-9.609 -9.87,0 -17.23,3.52 -22.07,10.57 -4.83,7.051 -7.26,17.063 -7.26,30 0,13.012 2.44,23.289 7.31,30.821 4.88,7.531 12.22,11.3 22.02,11.3 11.74,0 19.83,-3.589 24.29,-10.769 4.46,-7.18 6.68,-17.473 6.68,-30.859 z m -0.19,57.891 c 0,-2.192 0.13,-5.012 0.39,-8.473 0.25,-3.457 0.51,-6.188 0.76,-8.168 h -1.15 c -2.05,3.141 -4.58,5.949 -7.59,8.41 -3.02,2.469 -6.61,4.438 -10.77,5.918 -4.18,1.473 -9.05,2.211 -14.63,2.211 -13.2,0 -23.79,-4.629 -31.73,-13.898 -7.95,-9.262 -11.92,-22.961 -11.92,-41.102 0,-17.949 3.89,-31.48 11.68,-40.578 7.78,-9.102 18.35,-13.66 31.69,-13.66 5.69,0 10.66,0.758 14.86,2.258 4.19,1.511 7.82,3.55 10.86,6.121 3.04,2.558 5.56,5.41 7.55,8.55 h 0.67 l 2.41,-15 h 12.88 v 149.618 h -15.96 v -42.207"
         style="fill:#231f20;fill-opacity:1;fill-rule:nonzero;stroke:none"
         id="path150" />
      <path
         d="m 2665.28,635.059 c -5.76,3.371 -12.78,6.562 -21.06,9.57 -7.56,2.762 -13.63,5.402 -18.21,7.941 -4.58,2.532 -7.92,5.43 -10.01,8.7 -2.08,3.269 -3.11,7.371 -3.11,12.3 0,4.43 1.08,8.239 3.26,11.45 2.18,3.199 5.33,5.679 9.47,7.449 4.14,1.761 9.21,2.64 15.24,2.64 6.03,0 11.87,-0.699 17.55,-2.109 5.67,-1.41 11.04,-3.168 16.11,-5.289 l 5.1,14.039 c -5.33,2.371 -11.18,4.262 -17.55,5.672 -6.38,1.41 -13.32,2.109 -20.83,2.109 -8.77,0 -16.55,-1.422 -23.31,-4.269 -6.76,-2.852 -12.05,-6.961 -15.86,-12.313 -3.82,-5.347 -5.73,-11.777 -5.73,-19.277 0,-5.453 0.78,-10.293 2.36,-14.524 1.57,-4.226 3.9,-7.949 6.97,-11.148 3.08,-3.211 6.89,-6.078 11.45,-8.609 4.54,-2.532 9.8,-4.852 15.76,-6.969 8.46,-3.012 15.14,-5.852 20.05,-8.512 4.91,-2.66 8.41,-5.609 10.52,-8.84 2.12,-3.242 3.18,-7.261 3.18,-12.07 0,-5 -1.26,-9.281 -3.79,-12.84 -2.54,-3.551 -6.25,-6.281 -11.11,-8.172 -4.88,-1.886 -10.84,-2.84 -17.88,-2.84 -7.57,0 -14.82,0.852 -21.74,2.551 -6.92,1.699 -12.79,3.539 -17.6,5.531 v -15.671 c 3.01,-1.411 6.51,-2.598 10.49,-3.571 3.97,-0.957 8.33,-1.687 13.07,-2.207 4.74,-0.511 9.78,-0.769 15.1,-0.769 10.07,0 18.81,1.539 26.25,4.617 7.43,3.082 13.22,7.551 17.35,13.41 4.14,5.871 6.21,12.973 6.21,21.313 0,7.429 -1.51,13.57 -4.52,18.41 -3.02,4.84 -7.4,8.937 -13.18,12.297"
         style="fill:#231f20;fill-opacity:1;fill-rule:nonzero;stroke:none"
         id="path152" />
      <path
         d="m 2738.31,655.59 c 4.83,3.148 10.91,4.711 18.22,4.711 3.65,0 7.58,-0.512 11.78,-1.531 4.2,-1.032 7.9,-2.18 11.11,-3.461 l 4.8,13.363 c -3.14,1.598 -7.16,2.937 -12.06,3.988 -4.91,1.059 -9.99,1.59 -15.25,1.59 -9.55,0 -18.08,-1.961 -25.57,-5.871 -7.51,-3.91 -13.39,-9.918 -17.65,-18.027 -4.26,-8.102 -6.39,-18.543 -6.39,-31.293 0,-12.18 2.01,-22.278 6.06,-30.289 4.03,-8.02 9.67,-13.981 16.92,-17.891 7.24,-3.91 15.61,-5.867 25.1,-5.867 5.96,0 11.1,0.476 15.43,1.449 4.33,0.949 8.25,2.34 11.77,4.141 v 14.218 c -3.64,-1.601 -7.72,-2.992 -12.2,-4.179 -4.49,-1.192 -9.52,-1.782 -15.1,-1.782 -6.99,0 -12.8,1.59 -17.45,4.762 -4.65,3.18 -8.14,7.77 -10.49,13.801 -2.33,6.027 -3.51,13.297 -3.51,21.828 0,8.91 1.21,16.41 3.61,22.5 2.4,6.09 6.03,10.699 10.87,13.84"
         style="fill:#231f20;fill-opacity:1;fill-rule:nonzero;stroke:none"
         id="path154" />
      <path
         d="m 2811.43,566.941 h 15.95 V 672.32 h -15.95 V 566.941"
         style="fill:#231f20;fill-opacity:1;fill-rule:nonzero;stroke:none"
         id="path156" />
      <path
         d="m 2819.6,711.75 c -2.76,0 -5.05,-0.852 -6.87,-2.551 -1.83,-1.699 -2.75,-4.34 -2.75,-7.929 0,-3.532 0.92,-6.161 2.75,-7.891 1.82,-1.731 4.11,-2.59 6.87,-2.59 2.63,0 4.89,0.859 6.78,2.59 1.89,1.73 2.83,4.359 2.83,7.891 0,3.589 -0.94,6.23 -2.83,7.929 -1.89,1.699 -4.15,2.551 -6.78,2.551"
         style="fill:#231f20;fill-opacity:1;fill-rule:nonzero;stroke:none"
         id="path158" />
      <path
         d="m 2876.04,629.441 c 0.96,10 3.97,17.789 9.04,23.36 5.06,5.578 11.85,8.371 20.38,8.371 6.02,0 10.96,-1.332 14.8,-3.992 3.85,-2.66 6.72,-6.379 8.61,-11.149 1.89,-4.781 2.87,-10.312 2.94,-16.59 z m 52.69,38.848 c -6.41,3.973 -14.1,5.961 -23.08,5.961 -9.42,0 -17.61,-2.25 -24.57,-6.73 -6.96,-4.489 -12.34,-10.879 -16.15,-19.188 -3.81,-8.301 -5.72,-18.121 -5.72,-29.473 0,-11.597 2.08,-21.41 6.25,-29.418 4.17,-8.011 10.01,-14.089 17.55,-18.222 7.53,-4.137 16.35,-6.207 26.49,-6.207 7.11,0 13.29,0.547 18.5,1.636 5.23,1.09 10.5,2.821 15.82,5.204 v 14.027 c -5.51,-2.367 -10.83,-4.16 -15.95,-5.379 -5.13,-1.219 -11.03,-1.828 -17.7,-1.828 -10.84,0 -19.23,3.238 -25.19,9.707 -5.96,6.48 -9.04,15.902 -9.23,28.269 h 72.78 v 9.911 c 0,9.55 -1.7,17.902 -5.09,25.043 -3.4,7.148 -8.3,12.707 -14.71,16.687"
         style="fill:#231f20;fill-opacity:1;fill-rule:nonzero;stroke:none"
         id="path160" />
      <path
         d="m 3029.49,674.25 c -4.75,0 -9.26,-0.66 -13.55,-1.969 -4.3,-1.32 -8.18,-3.242 -11.64,-5.769 -3.46,-2.543 -6.31,-5.66 -8.56,-9.383 h -0.86 l -2.4,15.191 h -12.89 V 566.941 h 15.96 v 55.188 c 0,12.57 2.37,22.152 7.12,28.75 4.74,6.609 12.95,9.91 24.62,9.91 8.26,0 14.4,-2.187 18.41,-6.539 4,-4.359 6,-10.93 6,-19.711 v -67.598 h 15.78 v 68.661 c 0,13.519 -3.21,23.339 -9.62,29.457 -6.41,6.132 -15.87,9.191 -28.37,9.191"
         style="fill:#231f20;fill-opacity:1;fill-rule:nonzero;stroke:none"
         id="path162" />
      <path
         d="m 3129.44,655.59 c 4.84,3.148 10.91,4.711 18.22,4.711 3.66,0 7.59,-0.512 11.78,-1.531 4.2,-1.032 7.9,-2.18 11.11,-3.461 l 4.81,13.363 c -3.15,1.598 -7.17,2.937 -12.07,3.988 -4.91,1.059 -9.99,1.59 -15.25,1.59 -9.54,0 -18.07,-1.961 -25.57,-5.871 -7.5,-3.91 -13.39,-9.918 -17.65,-18.027 -4.26,-8.102 -6.39,-18.543 -6.39,-31.293 0,-12.18 2.02,-22.278 6.06,-30.289 4.04,-8.02 9.68,-13.981 16.93,-17.891 7.24,-3.91 15.6,-5.867 25.09,-5.867 5.96,0 11.1,0.476 15.43,1.449 4.33,0.949 8.26,2.34 11.77,4.141 v 14.218 c -3.64,-1.601 -7.72,-2.992 -12.2,-4.179 -4.49,-1.192 -9.52,-1.782 -15.1,-1.782 -6.98,0 -12.8,1.59 -17.45,4.762 -4.65,3.18 -8.14,7.77 -10.49,13.801 -2.33,6.027 -3.5,13.297 -3.5,21.828 0,8.91 1.2,16.41 3.6,22.5 2.41,6.09 6.03,10.699 10.87,13.84"
         style="fill:#231f20;fill-opacity:1;fill-rule:nonzero;stroke:none"
         id="path164" />
      <path
         d="m 3213.52,629.441 c 0.96,10 3.97,17.789 9.04,23.36 5.07,5.578 11.86,8.371 20.39,8.371 6.02,0 10.96,-1.332 14.8,-3.992 3.85,-2.66 6.71,-6.379 8.61,-11.149 1.89,-4.781 2.86,-10.312 2.93,-16.59 z m 52.69,38.848 c -6.41,3.973 -14.1,5.961 -23.08,5.961 -9.42,0 -17.61,-2.25 -24.56,-6.73 -6.96,-4.489 -12.35,-10.879 -16.16,-19.188 -3.81,-8.301 -5.71,-18.121 -5.71,-29.473 0,-11.597 2.08,-21.41 6.24,-29.418 4.17,-8.011 10.02,-14.089 17.55,-18.222 7.54,-4.137 16.36,-6.207 26.49,-6.207 7.12,0 13.29,0.547 18.51,1.636 5.23,1.09 10.5,2.821 15.82,5.204 v 14.027 c -5.51,-2.367 -10.84,-4.16 -15.96,-5.379 -5.13,-1.219 -11.03,-1.828 -17.69,-1.828 -10.84,0 -19.23,3.238 -25.19,9.707 -5.97,6.48 -9.04,15.902 -9.24,28.269 h 72.79 v 9.911 c 0,9.55 -1.7,17.902 -5.09,25.043 -3.4,7.148 -8.31,12.707 -14.72,16.687"
         style="fill:#231f20;fill-opacity:1;fill-rule:nonzero;stroke:none"
         id="path166" />
      <path
         d="m 3381.35,609.969 c -2.6,3.679 -6.29,6.832 -11.1,9.422 -4.8,2.597 -10.51,5.121 -17.12,7.55 -6.6,2.5 -11.92,4.68 -15.95,6.539 -4.05,1.86 -6.98,3.852 -8.81,5.961 -1.83,2.118 -2.73,4.809 -2.73,8.079 0,4.23 1.96,7.562 5.91,10 3.94,2.429 9.59,3.652 16.97,3.652 5.12,0 10.15,-0.641 15.1,-1.922 4.93,-1.289 9.57,-2.852 13.93,-4.719 l 5.39,12.801 c -4.81,2.109 -9.98,3.789 -15.53,5.039 -5.54,1.25 -11.49,1.879 -17.83,1.879 -11.74,0 -21.21,-2.391 -28.42,-7.16 -7.21,-4.781 -10.82,-11.621 -10.82,-20.531 0,-5.84 1.33,-10.579 4,-14.239 2.66,-3.648 6.44,-6.742 11.34,-9.269 4.91,-2.539 10.72,-5.09 17.46,-7.653 6.79,-2.5 12.1,-4.789 15.95,-6.867 3.85,-2.09 6.59,-4.23 8.22,-6.449 1.64,-2.211 2.45,-4.75 2.45,-7.641 0,-5.062 -2.05,-9.07 -6.14,-12.019 -4.11,-2.953 -10.71,-4.422 -19.81,-4.422 -6.22,0 -12.31,0.859 -18.27,2.602 -5.96,1.73 -11.09,3.648 -15.38,5.757 v -14.711 c 4.03,-2.109 8.74,-3.75 14.13,-4.898 5.38,-1.16 11.76,-1.738 19.13,-1.738 8.66,0 16.1,1.16 22.36,3.468 6.25,2.309 11.06,5.75 14.42,10.329 3.36,4.589 5.05,10.242 5.05,16.98 0,5.77 -1.3,10.492 -3.9,14.18"
         style="fill:#231f20;fill-opacity:1;fill-rule:nonzero;stroke:none"
         id="path168" />
    </g>
  </g>
</svg>
