<?xml version="1.0" encoding="UTF-8" standalone="no"?>
<!-- Created with Inkscape (http://www.inkscape.org/) -->

<svg
   version="1.1"
   id="svg2"
   width="944.88"
   height="243.36"
   viewBox="0 0 944.88 243.36"
   sodipodi:docname="HTWD_logo_CMYK_horizontal_color.eps"
   xmlns:inkscape="http://www.inkscape.org/namespaces/inkscape"
   xmlns:sodipodi="http://sodipodi.sourceforge.net/DTD/sodipodi-0.dtd"
   xmlns="http://www.w3.org/2000/svg"
   xmlns:svg="http://www.w3.org/2000/svg">
  <defs
     id="defs6" />
  <sodipodi:namedview
     id="namedview4"
     pagecolor="#ffffff"
     bordercolor="#000000"
     borderopacity="0.25"
     inkscape:showpageshadow="2"
     inkscape:pageopacity="0.0"
     inkscape:pagecheckerboard="0"
     inkscape:deskcolor="#d1d1d1" />
  <g
     id="g8"
     inkscape:groupmode="layer"
     inkscape:label="ink_ext_XXXXXX"
     transform="matrix(1.3333333,0,0,-1.3333333,0,243.36)">
    <g
       id="g10"
       transform="scale(0.1)">
      <path
         d="m 3401.57,913.176 c 0,49.242 -7.46,94.864 -22.37,136.884 -14.96,42 -36.87,78.71 -65.8,110.09 -28.94,31.4 -64.62,55.8 -107.11,73.18 -35.25,14.44 -75.11,22.53 -119.07,24.97 l -59.82,-59.82 h 31.62 c 50.49,0 91.71,-12.31 123.73,-36.93 32,-24.64 55.63,-58.4 70.87,-101.33 15.22,-42.93 22.84,-91.958 22.84,-147.044 0,-55.09 -7,-104.117 -21,-147.047 -14,-42.93 -36.86,-76.707 -68.55,-101.328 -31.71,-24.629 -74.33,-36.942 -127.89,-36.942 h -120.95 c -8,0 -13.32,0.852 -15.92,2.563 -2.62,1.687 -3.93,6.379 -3.93,14.066 V 1089.3 L 2812.04,983.129 V 646.801 c 0,-7.09 -0.62,-12 -1.84,-14.781 -1.25,-2.758 -5.4,-4.161 -12.47,-4.161 h -70.64 c -7.07,0 -11.62,-1.058 -13.6,-3.218 -2.02,-2.153 -3,-6.93 -3,-14.313 v -27.707 c 0,-6.762 1.13,-11.07 3.44,-12.91 2.31,-1.852 6.85,-2.781 13.63,-2.781 h 332.39 c 52.94,0 100.4,8.691 142.43,26.09 42,17.378 77.86,41.781 107.55,73.179 29.71,31.371 52.4,68.09 68.09,110.09 15.71,42.02 23.55,87.641 23.55,136.887"
         style="fill:#f25c19;fill-opacity:1;fill-rule:nonzero;stroke:none"
         id="path12" />
      <path
         d="M 978.84,1258.07 V 987.184 H 710.574 V 1258.07 H 566.93 V 566.941 H 710.574 V 865.227 H 978.84 V 566.941 h 143.15 V 1258.07 H 978.84"
         style="fill:#231f20;fill-opacity:1;fill-rule:nonzero;stroke:none"
         id="path14" />
      <path
         d="m 1208.2,1258.07 v -121.96 h 183.93 V 566.941 h 143.64 v 569.169 h 183.94 v 121.96 H 1208.2"
         style="fill:#231f20;fill-opacity:1;fill-rule:nonzero;stroke:none"
         id="path16" />
      <path
         d="m 2572.17,1258.07 -119.53,-508.73 -129.76,508.73 h -135.75 l -130.2,-508.73 -119.51,508.73 H 1796.09 L 1968.91,566.941 H 2132 l 122.31,485.059 123.02,-484.148 218.51,218.507 117.62,471.711 h -141.29"
         style="fill:#231f20;fill-opacity:1;fill-rule:nonzero;stroke:none"
         id="path18" />
      <path
         d="m 3717.74,1183.97 h 73.84 v -66.25 h 16.34 v 140.57 h -16.34 v -59.9 h -73.84 v 59.9 h -16.35 v -140.57 h 16.35 v 66.25"
         style="fill:#231f20;fill-opacity:1;fill-rule:nonzero;stroke:none"
         id="path20" />
      <path
         d="m 3921.13,1148.58 c -2.25,-6.21 -5.72,-11.02 -10.43,-14.42 -4.72,-3.4 -10.73,-5.1 -18.04,-5.1 -7.37,0 -13.4,1.7 -18.07,5.1 -4.68,3.4 -8.15,8.21 -10.39,14.42 -2.24,6.22 -3.37,13.56 -3.37,22.02 0,12.82 2.55,22.85 7.65,30.1 5.09,7.24 13.12,10.87 24.09,10.87 7.44,0 13.5,-1.68 18.17,-5.01 4.68,-3.33 8.14,-8.06 10.39,-14.18 2.24,-6.12 3.37,-13.38 3.37,-21.78 0,-8.46 -1.13,-15.8 -3.37,-22.02 z m -2.93,70 c -7.21,4.3 -15.63,6.45 -25.25,6.45 -10.06,0 -18.73,-2.14 -26.01,-6.4 -7.28,-4.27 -12.87,-10.45 -16.78,-18.56 -3.91,-8.11 -5.86,-17.93 -5.86,-29.47 0,-8.65 1.17,-16.38 3.51,-23.17 2.34,-6.8 5.64,-12.54 9.9,-17.22 4.26,-4.67 9.33,-8.25 15.19,-10.71 5.87,-2.47 12.32,-3.71 19.38,-3.71 7.57,0 14.34,1.24 20.34,3.71 5.99,2.46 11.1,6.04 15.33,10.71 4.24,4.68 7.47,10.42 9.72,17.22 2.24,6.79 3.36,14.52 3.36,23.17 0,11.47 -2,21.26 -6.01,29.38 -4.01,8.11 -9.61,14.31 -16.82,18.6"
         style="fill:#231f20;fill-opacity:1;fill-rule:nonzero;stroke:none"
         id="path22" />
      <path
         d="m 3991.73,1121.66 c 7.24,-3.91 15.61,-5.87 25.1,-5.87 5.96,0 11.1,0.49 15.43,1.45 4.33,0.96 8.25,2.33 11.78,4.13 v 14.23 c -3.66,-1.6 -7.73,-2.99 -12.21,-4.18 -4.49,-1.19 -9.52,-1.78 -15.1,-1.78 -6.99,0 -12.8,1.59 -17.45,4.76 -4.65,3.17 -8.14,7.77 -10.48,13.8 -2.34,6.02 -3.51,13.3 -3.51,21.83 0,8.9 1.2,16.4 3.6,22.49 2.41,6.09 6.03,10.71 10.87,13.85 4.84,3.14 10.91,4.71 18.22,4.71 3.66,0 7.58,-0.51 11.78,-1.54 4.2,-1.02 7.9,-2.18 11.11,-3.46 l 4.8,13.37 c -3.14,1.6 -7.16,2.93 -12.06,3.99 -4.91,1.06 -9.99,1.59 -15.25,1.59 -9.55,0 -18.07,-1.96 -25.57,-5.87 -7.5,-3.91 -13.38,-9.92 -17.65,-18.03 -4.26,-8.11 -6.39,-18.54 -6.39,-31.29 0,-12.19 2.02,-22.29 6.06,-30.3 4.04,-8.01 9.67,-13.97 16.92,-17.88"
         style="fill:#231f20;fill-opacity:1;fill-rule:nonzero;stroke:none"
         id="path24" />
      <path
         d="m 4090.89,1172.82 c 0,8.32 1.01,15.38 3.03,21.14 2.02,5.77 5.35,10.15 10,13.13 4.65,2.98 10.87,4.48 18.7,4.48 8.27,0 14.41,-2.19 18.41,-6.55 4.01,-4.36 6.01,-10.93 6.01,-19.71 v -67.59 h 15.77 v 68.66 c 0,8.96 -1.43,16.27 -4.28,21.92 -2.85,5.63 -7.12,9.8 -12.79,12.5 -5.67,2.68 -12.74,4.04 -21.2,4.04 -4.81,0 -9.36,-0.66 -13.65,-1.98 -4.3,-1.31 -8.13,-3.24 -11.49,-5.77 -3.37,-2.53 -6.14,-5.66 -8.32,-9.38 h -1.06 c 0.32,2.18 0.55,4.57 0.68,7.17 0.13,2.6 0.19,5.18 0.19,7.74 v 44.71 h -15.96 v -149.61 h 15.96 v 55.1"
         style="fill:#231f20;fill-opacity:1;fill-rule:nonzero;stroke:none"
         id="path26" />
      <path
         d="m 4228.02,1115.79 c 8.66,0 16.11,1.16 22.36,3.47 6.25,2.3 11.06,5.75 14.43,10.33 3.36,4.58 5.04,10.24 5.04,16.97 0,5.77 -1.3,10.5 -3.89,14.19 -2.6,3.68 -6.3,6.82 -11.11,9.42 -4.8,2.6 -10.51,5.11 -17.11,7.54 -6.6,2.51 -11.92,4.68 -15.96,6.55 -4.04,1.85 -6.98,3.84 -8.8,5.96 -1.83,2.12 -2.74,4.81 -2.74,8.08 0,4.23 1.97,7.56 5.91,10 3.95,2.43 9.6,3.65 16.97,3.65 5.13,0 10.16,-0.65 15.1,-1.92 4.93,-1.29 9.58,-2.86 13.94,-4.72 l 5.39,12.79 c -4.81,2.12 -9.99,3.8 -15.54,5.05 -5.54,1.25 -11.48,1.88 -17.83,1.88 -11.73,0 -21.2,-2.39 -28.42,-7.17 -7.21,-4.77 -10.81,-11.62 -10.81,-20.53 0,-5.83 1.33,-10.58 3.99,-14.23 2.66,-3.65 6.44,-6.75 11.34,-9.28 4.91,-2.53 10.73,-5.08 17.46,-7.64 6.79,-2.5 12.11,-4.79 15.96,-6.88 3.84,-2.08 6.59,-4.23 8.22,-6.44 1.63,-2.21 2.45,-4.76 2.45,-7.65 0,-5.06 -2.05,-9.06 -6.15,-12.01 -4.11,-2.95 -10.71,-4.43 -19.81,-4.43 -6.22,0 -12.31,0.87 -18.27,2.61 -5.96,1.72 -11.09,3.64 -15.38,5.76 v -14.71 c 4.04,-2.12 8.75,-3.75 14.13,-4.9 5.39,-1.16 11.76,-1.74 19.13,-1.74"
         style="fill:#231f20;fill-opacity:1;fill-rule:nonzero;stroke:none"
         id="path28" />
      <path
         d="m 4318.62,1121.66 c 7.24,-3.91 15.61,-5.87 25.1,-5.87 5.96,0 11.11,0.49 15.43,1.45 4.33,0.96 8.25,2.33 11.78,4.13 v 14.23 c -3.65,-1.6 -7.72,-2.99 -12.21,-4.18 -4.49,-1.19 -9.52,-1.78 -15.1,-1.78 -6.98,0 -12.8,1.59 -17.45,4.76 -4.64,3.17 -8.14,7.77 -10.48,13.8 -2.34,6.02 -3.51,13.3 -3.51,21.83 0,8.9 1.2,16.4 3.6,22.49 2.41,6.09 6.03,10.71 10.87,13.85 4.84,3.14 10.92,4.71 18.22,4.71 3.66,0 7.58,-0.51 11.78,-1.54 4.2,-1.02 7.9,-2.18 11.11,-3.46 l 4.81,13.37 c -3.14,1.6 -7.17,2.93 -12.07,3.99 -4.91,1.06 -9.99,1.59 -15.24,1.59 -9.56,0 -18.08,-1.96 -25.58,-5.87 -7.5,-3.91 -13.38,-9.92 -17.64,-18.03 -4.26,-8.11 -6.39,-18.54 -6.39,-31.29 0,-12.19 2.01,-22.29 6.05,-30.3 4.04,-8.01 9.68,-13.97 16.92,-17.88"
         style="fill:#231f20;fill-opacity:1;fill-rule:nonzero;stroke:none"
         id="path30" />
      <path
         d="m 4430.82,1207.09 c 4.64,2.98 10.87,4.48 18.7,4.48 8.27,0 14.4,-2.19 18.41,-6.55 4.01,-4.36 6.01,-10.93 6.01,-19.71 v -67.59 h 15.77 v 68.66 c 0,8.96 -1.43,16.27 -4.28,21.92 -2.85,5.63 -7.12,9.8 -12.79,12.5 -5.67,2.68 -12.74,4.04 -21.2,4.04 -4.81,0 -9.36,-0.66 -13.66,-1.98 -4.29,-1.31 -8.12,-3.24 -11.48,-5.77 -3.37,-2.53 -6.14,-5.66 -8.32,-9.38 h -1.06 c 0.32,2.18 0.54,4.57 0.68,7.17 0.12,2.6 0.19,5.18 0.19,7.74 v 44.71 h -15.97 v -149.61 h 15.97 v 55.1 c 0,8.32 1.01,15.38 3.03,21.14 2.01,5.77 5.35,10.15 10,13.13"
         style="fill:#231f20;fill-opacity:1;fill-rule:nonzero;stroke:none"
         id="path32" />
      <path
         d="m 4544.44,1119.83 c 5.65,-2.69 12.63,-4.04 20.96,-4.04 4.87,0 9.48,0.63 13.81,1.88 4.32,1.25 8.21,3.13 11.68,5.62 3.46,2.5 6.28,5.58 8.46,9.24 h 0.87 l 2.3,-14.81 h 13.08 v 105.38 h -16.06 v -55.48 c 0,-8.33 -1.02,-15.37 -3.08,-21.1 -2.05,-5.74 -5.4,-10.09 -10.04,-13.03 -4.65,-2.95 -10.89,-4.43 -18.71,-4.43 -8.14,0 -14.19,2.17 -18.17,6.49 -3.97,4.33 -5.96,10.89 -5.96,19.66 v 67.89 h -16.15 v -69.04 c 0,-8.85 1.42,-16.09 4.28,-21.73 2.84,-5.64 7.09,-9.81 12.73,-12.5"
         style="fill:#231f20;fill-opacity:1;fill-rule:nonzero;stroke:none"
         id="path34" />
      <path
         d="m 4655.33,1117.72 h 16.06 v 149.61 h -16.06 v -149.61"
         style="fill:#231f20;fill-opacity:1;fill-rule:nonzero;stroke:none"
         id="path36" />
      <path
         d="m 4731.03,1203.58 c 5.07,5.58 11.86,8.37 20.39,8.37 6.02,0 10.96,-1.33 14.8,-3.99 3.85,-2.66 6.72,-6.38 8.61,-11.16 1.89,-4.77 2.87,-10.3 2.93,-16.58 H 4722 c 0.95,10 3.97,17.79 9.03,23.36 z m -2.07,-81.58 c 7.54,-4.14 16.37,-6.21 26.49,-6.21 7.12,0 13.29,0.55 18.52,1.64 5.22,1.09 10.49,2.82 15.81,5.2 v 14.03 c -5.51,-2.37 -10.83,-4.17 -15.96,-5.38 -5.13,-1.23 -11.03,-1.83 -17.69,-1.83 -10.83,0 -19.23,3.23 -25.19,9.71 -5.96,6.48 -9.04,15.89 -9.24,28.27 h 72.79 v 9.91 c 0,9.54 -1.7,17.89 -5.09,25.04 -3.4,7.15 -8.31,12.71 -14.72,16.69 -6.41,3.97 -14.1,5.96 -23.07,5.96 -9.43,0 -17.62,-2.25 -24.57,-6.74 -6.96,-4.48 -12.34,-10.88 -16.15,-19.18 -3.82,-8.3 -5.72,-18.13 -5.72,-29.47 0,-11.6 2.08,-21.41 6.25,-29.42 4.16,-8.02 10.01,-14.09 17.54,-18.22"
         style="fill:#231f20;fill-opacity:1;fill-rule:nonzero;stroke:none"
         id="path38" />
      <path
         d="m 4885.35,1117.72 h 15.97 v 92.88 h 26.25 v 12.5 h -26.25 v 7.7 c 0,8.39 1.45,14.56 4.37,18.5 2.92,3.95 7.42,5.91 13.51,5.91 2.82,0 5.59,-0.3 8.32,-0.91 2.72,-0.6 5.17,-1.26 7.36,-1.97 l 4.13,12.6 c -2.56,0.9 -5.53,1.7 -8.9,2.4 -3.36,0.71 -7.06,1.06 -11.1,1.06 -7.18,0 -13.27,-1.32 -18.27,-3.94 -5,-2.63 -8.81,-6.72 -11.44,-12.26 -2.63,-5.55 -3.95,-12.74 -3.95,-21.59 v -7.01 l -18.66,-5.3 v -7.69 h 18.66 v -92.88"
         style="fill:#231f20;fill-opacity:1;fill-rule:nonzero;stroke:none"
         id="path40" />
      <path
         d="m 4968.74,1119.83 c 5.64,-2.69 12.63,-4.04 20.96,-4.04 4.87,0 9.48,0.63 13.8,1.88 4.33,1.25 8.22,3.13 11.69,5.62 3.46,2.5 6.27,5.58 8.45,9.24 h 0.87 l 2.31,-14.81 h 13.07 v 105.38 h -16.05 v -55.48 c 0,-8.33 -1.03,-15.37 -3.08,-21.1 -2.05,-5.74 -5.4,-10.09 -10.04,-13.03 -4.66,-2.95 -10.89,-4.43 -18.71,-4.43 -8.14,0 -14.2,2.17 -18.17,6.49 -3.97,4.33 -5.96,10.89 -5.96,19.66 v 67.89 h -16.16 v -69.04 c 0,-8.85 1.43,-16.09 4.28,-21.73 2.85,-5.64 7.1,-9.81 12.74,-12.5"
         style="fill:#231f20;fill-opacity:1;fill-rule:nonzero;stroke:none"
         id="path42" />
      <path
         d="m 4977.88,1242.33 c 2.49,0 4.6,0.79 6.3,2.36 1.69,1.57 2.54,3.92 2.54,7.07 0,3.2 -0.85,5.54 -2.54,7.02 -1.7,1.47 -3.81,2.2 -6.3,2.2 -2.44,0 -4.49,-0.73 -6.16,-2.2 -1.66,-1.48 -2.5,-3.82 -2.5,-7.02 0,-3.15 0.84,-5.5 2.5,-7.07 1.67,-1.57 3.72,-2.36 6.16,-2.36"
         style="fill:#231f20;fill-opacity:1;fill-rule:nonzero;stroke:none"
         id="path44" />
      <path
         d="m 5014.7,1242.33 c 2.44,0 4.52,0.79 6.25,2.36 1.74,1.57 2.6,3.92 2.6,7.07 0,3.2 -0.86,5.54 -2.6,7.02 -1.73,1.47 -3.81,2.2 -6.25,2.2 -2.37,0 -4.39,-0.73 -6.06,-2.2 -1.66,-1.48 -2.49,-3.82 -2.49,-7.02 0,-3.15 0.83,-5.5 2.49,-7.07 1.67,-1.57 3.69,-2.36 6.06,-2.36"
         style="fill:#231f20;fill-opacity:1;fill-rule:nonzero;stroke:none"
         id="path46" />
      <path
         d="m 5095.69,1174.26 c 0,5.44 0.8,10.39 2.4,14.85 1.6,4.46 3.82,8.27 6.63,11.44 2.83,3.18 6.11,5.61 9.86,7.31 3.75,1.7 7.74,2.55 11.97,2.55 1.86,0 3.85,-0.13 5.97,-0.38 2.11,-0.26 4.03,-0.62 5.76,-1.07 l 2.02,14.81 c -1.79,0.39 -3.85,0.69 -6.15,0.92 -2.31,0.22 -4.52,0.34 -6.64,0.34 -5,0 -9.54,-0.97 -13.6,-2.89 -4.07,-1.92 -7.65,-4.5 -10.72,-7.74 -3.08,-3.24 -5.71,-6.81 -7.89,-10.72 h -0.67 l -1.73,19.42 h -13.27 v -105.38 h 16.06 v 56.54"
         style="fill:#231f20;fill-opacity:1;fill-rule:nonzero;stroke:none"
         id="path48" />
      <path
         d="m 5204.05,1243.87 h 44.24 v -126.15 h 16.43 v 126.15 h 44.04 v 14.42 h -104.71 v -14.42"
         style="fill:#231f20;fill-opacity:1;fill-rule:nonzero;stroke:none"
         id="path50" />
      <path
         d="m 5344.56,1180.22 c 0.95,10 3.96,17.79 9.04,23.36 5.06,5.58 11.85,8.37 20.38,8.37 6.02,0 10.96,-1.33 14.8,-3.99 3.85,-2.66 6.72,-6.38 8.61,-11.16 1.89,-4.77 2.87,-10.3 2.93,-16.58 z m 52.69,38.85 c -6.41,3.97 -14.1,5.96 -23.08,5.96 -9.42,0 -17.61,-2.25 -24.57,-6.74 -6.96,-4.48 -12.34,-10.88 -16.15,-19.18 -3.81,-8.3 -5.72,-18.13 -5.72,-29.47 0,-11.6 2.08,-21.41 6.24,-29.42 4.18,-8.02 10.02,-14.09 17.55,-18.22 7.54,-4.14 16.36,-6.21 26.5,-6.21 7.11,0 13.28,0.55 18.5,1.64 5.23,1.09 10.5,2.82 15.82,5.2 v 14.03 c -5.51,-2.37 -10.83,-4.17 -15.95,-5.38 -5.13,-1.23 -11.04,-1.83 -17.7,-1.83 -10.84,0 -19.23,3.23 -25.19,9.71 -5.96,6.48 -9.04,15.89 -9.24,28.27 h 72.79 v 9.91 c 0,9.54 -1.7,17.89 -5.09,25.04 -3.4,7.15 -8.3,12.71 -14.71,16.69"
         style="fill:#231f20;fill-opacity:1;fill-rule:nonzero;stroke:none"
         id="path52" />
      <path
         d="m 5467.28,1121.66 c 7.24,-3.91 15.61,-5.87 25.09,-5.87 5.96,0 11.1,0.49 15.43,1.45 4.33,0.96 8.26,2.33 11.78,4.13 v 14.23 c -3.65,-1.6 -7.72,-2.99 -12.21,-4.18 -4.48,-1.19 -9.51,-1.78 -15.09,-1.78 -6.99,0 -12.8,1.59 -17.46,4.76 -4.65,3.17 -8.14,7.77 -10.48,13.8 -2.34,6.02 -3.51,13.3 -3.51,21.83 0,8.9 1.2,16.4 3.61,22.49 2.4,6.09 6.03,10.71 10.86,13.85 4.84,3.14 10.92,4.71 18.23,4.71 3.65,0 7.58,-0.51 11.77,-1.54 4.2,-1.02 7.91,-2.18 11.11,-3.46 l 4.81,13.37 c -3.15,1.6 -7.16,2.93 -12.07,3.99 -4.9,1.06 -9.98,1.59 -15.24,1.59 -9.55,0 -18.08,-1.96 -25.57,-5.87 -7.51,-3.91 -13.39,-9.92 -17.65,-18.03 -4.26,-8.11 -6.39,-18.54 -6.39,-31.29 0,-12.19 2.01,-22.29 6.06,-30.3 4.03,-8.01 9.67,-13.97 16.92,-17.88"
         style="fill:#231f20;fill-opacity:1;fill-rule:nonzero;stroke:none"
         id="path54" />
      <path
         d="m 5566.42,1172.82 c 0,8.32 1.02,15.38 3.03,21.14 2.03,5.77 5.36,10.15 10.01,13.13 4.64,2.98 10.88,4.48 18.7,4.48 8.28,0 14.42,-2.19 18.42,-6.55 4.01,-4.36 6.01,-10.93 6.01,-19.71 v -67.59 h 15.77 v 68.66 c 0,8.96 -1.42,16.27 -4.28,21.92 -2.85,5.63 -7.11,9.8 -12.79,12.5 -5.67,2.68 -12.74,4.04 -21.21,4.04 -4.81,0 -9.35,-0.66 -13.65,-1.98 -4.29,-1.31 -8.12,-3.24 -11.49,-5.77 -3.37,-2.53 -6.14,-5.66 -8.32,-9.38 h -1.06 c 0.33,2.18 0.55,4.57 0.68,7.17 0.13,2.6 0.18,5.18 0.18,7.74 v 44.71 h -15.95 v -149.61 h 15.95 v 55.1"
         style="fill:#231f20;fill-opacity:1;fill-rule:nonzero;stroke:none"
         id="path56" />
      <path
         d="m 5749.35,1185.31 v -67.59 h 15.77 v 68.66 c 0,13.52 -3.2,23.34 -9.61,29.46 -6.41,6.12 -15.87,9.19 -28.37,9.19 -4.75,0 -9.26,-0.66 -13.55,-1.98 -4.3,-1.31 -8.18,-3.23 -11.64,-5.76 -3.46,-2.54 -6.32,-5.66 -8.56,-9.38 h -0.86 l -2.41,15.19 h -12.88 v -105.38 h 15.95 v 55.19 c 0,12.56 2.38,22.14 7.13,28.75 4.73,6.6 12.94,9.91 24.61,9.91 8.27,0 14.4,-2.19 18.41,-6.55 4.01,-4.36 6.01,-10.93 6.01,-19.71"
         style="fill:#231f20;fill-opacity:1;fill-rule:nonzero;stroke:none"
         id="path58" />
      <path
         d="m 5803.98,1117.72 h 15.96 v 105.38 h -15.96 v -105.38"
         style="fill:#231f20;fill-opacity:1;fill-rule:nonzero;stroke:none"
         id="path60" />
      <path
         d="m 5812.15,1262.52 c -2.75,0 -5.04,-0.84 -6.87,-2.54 -1.82,-1.7 -2.74,-4.34 -2.74,-7.94 0,-3.52 0.92,-6.15 2.74,-7.88 1.83,-1.73 4.12,-2.6 6.87,-2.6 2.63,0 4.9,0.87 6.78,2.6 1.9,1.73 2.84,4.36 2.84,7.88 0,3.6 -0.94,6.24 -2.84,7.94 -1.88,1.7 -4.15,2.54 -6.78,2.54"
         style="fill:#231f20;fill-opacity:1;fill-rule:nonzero;stroke:none"
         id="path62" />
      <path
         d="m 5899.3,1178.1 42.41,45 h -18.76 l -35,-37.31 c -1.8,-1.98 -3.98,-4.61 -6.58,-7.88 -2.6,-3.27 -4.57,-5.74 -5.92,-7.41 h -0.67 c 0.13,2.82 0.28,6.08 0.48,9.77 0.19,3.68 0.29,6.81 0.29,9.37 v 77.69 h -15.87 v -149.61 h 15.87 v 38.17 l 12.78,11.73 37.21,-49.9 h 19.23 l -45.47,60.38"
         style="fill:#231f20;fill-opacity:1;fill-rule:nonzero;stroke:none"
         id="path64" />
      <path
         d="m 6093.14,1167.62 c 0,-8.33 -1.03,-15.37 -3.08,-21.1 -2.05,-5.74 -5.4,-10.09 -10.04,-13.03 -4.66,-2.95 -10.89,-4.43 -18.71,-4.43 -8.14,0 -14.2,2.17 -18.17,6.49 -3.98,4.33 -5.96,10.89 -5.96,19.66 v 67.89 h -16.16 v -69.04 c 0,-8.85 1.43,-16.09 4.28,-21.73 2.86,-5.64 7.1,-9.81 12.75,-12.5 5.63,-2.69 12.62,-4.04 20.96,-4.04 4.86,0 9.46,0.63 13.79,1.88 4.33,1.25 8.22,3.13 11.68,5.62 3.47,2.5 6.28,5.58 8.46,9.24 h 0.87 l 2.31,-14.81 h 13.07 v 105.38 h -16.05 v -55.48"
         style="fill:#231f20;fill-opacity:1;fill-rule:nonzero;stroke:none"
         id="path66" />
      <path
         d="m 6236.81,1117.72 v 68.66 c 0,13.52 -3.2,23.34 -9.61,29.46 -6.41,6.12 -15.87,9.19 -28.37,9.19 -4.75,0 -9.26,-0.66 -13.55,-1.98 -4.3,-1.31 -8.18,-3.23 -11.64,-5.76 -3.46,-2.54 -6.31,-5.66 -8.56,-9.38 h -0.86 l -2.41,15.19 h -12.88 v -105.38 h 15.95 v 55.19 c 0,12.56 2.38,22.14 7.13,28.75 4.74,6.6 12.94,9.91 24.61,9.91 8.27,0 14.4,-2.19 18.41,-6.55 4.01,-4.36 6.01,-10.93 6.01,-19.71 v -67.59 h 15.77"
         style="fill:#231f20;fill-opacity:1;fill-rule:nonzero;stroke:none"
         id="path68" />
      <path
         d="m 6315.68,1129.06 c -9.87,0 -17.23,3.53 -22.06,10.58 -4.84,7.05 -7.27,17.05 -7.27,30 0,13.01 2.44,23.29 7.31,30.82 4.88,7.53 12.22,11.29 22.02,11.29 11.74,0 19.83,-3.59 24.28,-10.76 4.46,-7.19 6.69,-17.47 6.69,-30.86 v -2.9 c 0,-12.62 -2.35,-22.14 -7.02,-28.55 -4.68,-6.41 -12.66,-9.62 -23.95,-9.62 z m 30.77,3.66 h 0.68 l 2.4,-15 h 12.89 v 149.61 h -15.97 v -42.2 c 0,-2.19 0.13,-5.01 0.39,-8.47 0.26,-3.46 0.51,-6.19 0.76,-8.17 h -1.15 c -2.05,3.14 -4.58,5.94 -7.59,8.41 -3.02,2.47 -6.61,4.44 -10.77,5.91 -4.17,1.48 -9.04,2.22 -14.62,2.22 -13.2,0 -23.78,-4.64 -31.73,-13.9 -7.95,-9.26 -11.92,-22.96 -11.92,-41.1 0,-17.96 3.89,-31.48 11.68,-40.58 7.79,-9.1 18.35,-13.66 31.69,-13.66 5.7,0 10.65,0.76 14.85,2.26 4.19,1.51 7.82,3.55 10.87,6.11 3.04,2.56 5.56,5.41 7.54,8.56"
         style="fill:#231f20;fill-opacity:1;fill-rule:nonzero;stroke:none"
         id="path70" />
      <path
         d="m 3843.98,983.855 -22.59,-88.078 c -1.03,-4.035 -1.97,-7.949 -2.84,-11.73 -0.86,-3.781 -1.62,-7.402 -2.26,-10.867 -0.64,-3.457 -1.18,-6.762 -1.63,-9.903 -0.39,2.246 -0.82,4.633 -1.3,7.168 -0.48,2.532 -1.03,5.188 -1.64,7.981 -0.61,2.789 -1.29,5.656 -2.06,8.601 -0.77,2.953 -1.6,5.934 -2.5,8.946 l -26.35,87.882 h -16.83 l -25.28,-87.21 c -0.84,-2.883 -1.63,-5.766 -2.36,-8.657 -0.74,-2.883 -1.41,-5.734 -2.02,-8.554 -0.61,-2.825 -1.17,-5.594 -1.68,-8.321 -0.52,-2.718 -0.93,-5.336 -1.25,-7.836 -0.39,2.438 -0.8,4.942 -1.25,7.5 -0.45,2.567 -0.95,5.196 -1.49,7.887 -0.55,2.691 -1.16,5.465 -1.83,8.32 -0.67,2.848 -1.39,5.75 -2.16,8.7 l -22.6,88.171 h -17.02 l 37.31,-140.574 h 16.44 l 27.12,94.516 c 0.83,2.824 1.61,5.609 2.35,8.367 0.74,2.758 1.38,5.352 1.93,7.789 0.54,2.434 0.99,4.582 1.34,6.442 0.36,1.859 0.6,3.269 0.72,4.23 0.2,-0.961 0.5,-2.391 0.92,-4.281 0.41,-1.891 0.94,-4.071 1.58,-6.535 0.64,-2.469 1.33,-5.063 2.07,-7.789 0.74,-2.727 1.52,-5.434 2.36,-8.125 l 27.88,-94.614 h 16.44 l 37.6,140.574 h -17.12"
         style="fill:#231f20;fill-opacity:1;fill-rule:nonzero;stroke:none"
         id="path72" />
      <path
         d="m 3886.8,843.281 h 15.96 V 948.664 H 3886.8 V 843.281"
         style="fill:#231f20;fill-opacity:1;fill-rule:nonzero;stroke:none"
         id="path74" />
      <path
         d="m 3901.75,985.539 c -1.89,1.699 -4.15,2.547 -6.78,2.547 -2.76,0 -5.05,-0.848 -6.87,-2.547 -1.83,-1.699 -2.75,-4.34 -2.75,-7.934 0,-3.527 0.92,-6.156 2.75,-7.882 1.82,-1.731 4.11,-2.598 6.87,-2.598 2.63,0 4.89,0.867 6.78,2.598 1.89,1.726 2.84,4.355 2.84,7.882 0,3.594 -0.95,6.235 -2.84,7.934"
         style="fill:#231f20;fill-opacity:1;fill-rule:nonzero;stroke:none"
         id="path76" />
      <path
         d="m 3990.39,950.59 c -5.01,0 -9.54,-0.965 -13.61,-2.891 -4.07,-1.918 -7.65,-4.5 -10.72,-7.738 -3.08,-3.234 -5.71,-6.809 -7.89,-10.719 h -0.67 l -1.73,19.422 H 3942.5 V 843.281 h 16.06 v 56.539 c 0,5.446 0.8,10.395 2.4,14.852 1.6,4.457 3.81,8.273 6.63,11.441 2.83,3.176 6.11,5.61 9.86,7.313 3.75,1.695 7.74,2.551 11.97,2.551 1.86,0 3.85,-0.133 5.96,-0.387 2.12,-0.262 4.05,-0.613 5.77,-1.063 l 2.02,14.809 c -1.79,0.387 -3.84,0.691 -6.15,0.914 -2.31,0.227 -4.52,0.34 -6.63,0.34"
         style="fill:#231f20;fill-opacity:1;fill-rule:nonzero;stroke:none"
         id="path78" />
      <path
         d="m 4036.66,973.086 -6.35,-22.883 -15.09,-6.25 v -7.789 h 15 v -62.5 c 0,-8.269 1.35,-14.742 4.08,-19.422 2.73,-4.679 6.36,-7.996 10.92,-9.953 4.54,-1.953 9.61,-2.934 15.19,-2.934 3.14,0 6.36,0.29 9.66,0.872 3.3,0.574 5.88,1.277 7.74,2.109 v 12.402 c -1.73,-0.636 -3.97,-1.183 -6.73,-1.629 -2.75,-0.449 -5.45,-0.675 -8.08,-0.675 -5.06,0 -9.12,1.632 -12.16,4.906 -3.04,3.269 -4.57,8.203 -4.57,14.805 v 62.019 h 30.87 v 12.5 h -30.87 v 24.422 h -9.61"
         style="fill:#231f20;fill-opacity:1;fill-rule:nonzero;stroke:none"
         id="path80" />
      <path
         d="m 4153.84,844.82 c 6.25,2.305 11.06,5.75 14.43,10.332 3.36,4.582 5.04,10.243 5.04,16.973 0,5.77 -1.3,10.496 -3.89,14.184 -2.6,3.683 -6.3,6.828 -11.11,9.421 -4.8,2.598 -10.51,5.114 -17.11,7.547 -6.6,2.504 -11.92,4.684 -15.96,6.543 -4.04,1.856 -6.98,3.844 -8.8,5.961 -1.83,2.117 -2.74,4.809 -2.74,8.074 0,4.235 1.97,7.567 5.91,10.004 3.95,2.434 9.6,3.649 16.97,3.649 5.13,0 10.16,-0.641 15.1,-1.918 4.93,-1.285 9.58,-2.856 13.94,-4.719 l 5.39,12.793 c -4.81,2.117 -9.99,3.797 -15.54,5.047 -5.54,1.254 -11.48,1.879 -17.83,1.879 -11.73,0 -21.2,-2.391 -28.42,-7.164 -7.21,-4.778 -10.81,-11.617 -10.81,-20.531 0,-5.832 1.33,-10.579 3.99,-14.231 2.66,-3.652 6.44,-6.75 11.34,-9.281 4.91,-2.528 10.73,-5.078 17.46,-7.641 6.79,-2.5 12.11,-4.793 15.96,-6.875 3.84,-2.086 6.59,-4.23 8.22,-6.441 1.63,-2.215 2.45,-4.762 2.45,-7.649 0,-5.062 -2.05,-9.066 -6.15,-12.019 -4.11,-2.945 -10.71,-4.422 -19.81,-4.422 -6.22,0 -12.31,0.863 -18.27,2.602 -5.96,1.726 -11.09,3.648 -15.38,5.761 v -14.711 c 4.04,-2.113 8.75,-3.746 14.13,-4.898 5.39,-1.16 11.76,-1.735 19.13,-1.735 8.66,0 16.11,1.157 22.36,3.465"
         style="fill:#231f20;fill-opacity:1;fill-rule:nonzero;stroke:none"
         id="path82" />
      <path
         d="m 4262.61,842.801 c 4.33,0.957 8.25,2.336 11.78,4.133 v 14.226 c -3.65,-1.601 -7.72,-2.992 -12.21,-4.18 -4.49,-1.187 -9.52,-1.781 -15.1,-1.781 -6.98,0 -12.8,1.59 -17.45,4.762 -4.64,3.176 -8.14,7.773 -10.48,13.801 -2.34,6.023 -3.51,13.301 -3.51,21.828 0,8.906 1.2,16.406 3.6,22.496 2.41,6.09 6.03,10.707 10.87,13.848 4.84,3.14 10.92,4.711 18.23,4.711 3.65,0 7.57,-0.512 11.77,-1.54 4.2,-1.027 7.9,-2.179 11.11,-3.46 l 4.81,13.363 c -3.14,1.601 -7.17,2.937 -12.07,3.992 -4.9,1.059 -9.99,1.59 -15.24,1.59 -9.56,0 -18.08,-1.957 -25.58,-5.871 -7.5,-3.906 -13.38,-9.918 -17.64,-18.028 -4.26,-8.105 -6.39,-18.543 -6.39,-31.293 0,-12.179 2.01,-22.281 6.05,-30.293 4.04,-8.011 9.68,-13.972 16.92,-17.882 7.24,-3.914 15.61,-5.868 25.1,-5.868 5.96,0 11.11,0.485 15.43,1.446"
         style="fill:#231f20;fill-opacity:1;fill-rule:nonzero;stroke:none"
         id="path84" />
      <path
         d="m 4321.24,898.379 c 0,8.328 1.01,15.379 3.03,21.148 2.02,5.774 5.35,10.145 10,13.129 4.65,2.981 10.88,4.473 18.7,4.473 8.27,0 14.41,-2.188 18.42,-6.543 4,-4.359 6.01,-10.93 6.01,-19.711 v -67.594 h 15.77 v 68.657 c 0,8.968 -1.43,16.277 -4.28,21.921 -2.85,5.637 -7.12,9.805 -12.79,12.496 -5.68,2.696 -12.74,4.043 -21.2,4.043 -4.81,0 -9.37,-0.66 -13.66,-1.976 -4.29,-1.313 -8.13,-3.238 -11.49,-5.77 -3.36,-2.527 -6.14,-5.656 -8.32,-9.375 h -1.05 c 0.32,2.18 0.54,4.567 0.67,7.168 0.13,2.594 0.19,5.172 0.19,7.739 v 44.711 h -15.96 V 843.281 h 15.96 v 55.098"
         style="fill:#231f20;fill-opacity:1;fill-rule:nonzero;stroke:none"
         id="path86" />
      <path
         d="m 4446.36,858.664 c -3.65,2.883 -5.47,7.34 -5.47,13.363 0,6.922 2.69,12.282 8.07,16.063 5.39,3.777 14.65,5.926 27.79,6.437 l 16.06,0.676 v -9.711 c 0,-10.387 -2.98,-18.176 -8.94,-23.367 -5.97,-5.187 -13.63,-7.789 -22.98,-7.789 -6.03,0 -10.87,1.441 -14.53,4.328 z m 37.51,-9.473 c 3.2,2.598 6.28,5.821 9.23,9.664 h 0.76 l 3.08,-15.574 h 11.64 v 71.633 c 0,12.371 -3.05,21.379 -9.14,27.02 -6.09,5.64 -15.42,8.464 -27.98,8.464 -6.79,0 -13.27,-0.871 -19.42,-2.601 -6.15,-1.727 -11.6,-3.817 -16.35,-6.246 l 4.91,-12.117 c 4.48,2.175 9.23,4.07 14.23,5.671 5,1.602 10.25,2.403 15.77,2.403 7.11,0 12.62,-1.828 16.54,-5.477 3.91,-3.652 5.86,-10.035 5.86,-19.136 v -6.442 l -18.17,-0.769 c -17.06,-0.516 -29.75,-3.594 -38.08,-9.231 -8.33,-5.644 -12.5,-13.719 -12.5,-24.23 0,-6.993 1.43,-12.758 4.28,-17.309 2.85,-4.551 6.76,-7.949 11.73,-10.191 4.97,-2.243 10.66,-3.368 17.07,-3.368 6.09,0 11.23,0.661 15.43,1.973 4.2,1.317 7.9,3.27 11.11,5.863"
         style="fill:#231f20;fill-opacity:1;fill-rule:nonzero;stroke:none"
         id="path88" />
      <path
         d="m 4552.16,843.281 h 15.96 v 92.883 h 26.25 v 12.5 h -26.25 v 7.695 c 0,8.395 1.46,14.563 4.38,18.508 2.91,3.942 7.41,5.91 13.51,5.91 2.82,0 5.59,-0.3 8.31,-0.914 2.72,-0.605 5.18,-1.265 7.36,-1.968 l 4.13,12.597 c -2.56,0.899 -5.53,1.699 -8.89,2.403 -3.36,0.703 -7.07,1.058 -11.11,1.058 -7.18,0 -13.27,-1.316 -18.27,-3.941 -4.99,-2.629 -8.81,-6.719 -11.44,-12.266 -2.63,-5.543 -3.94,-12.734 -3.94,-21.582 v -7.016 l -18.66,-5.293 v -7.691 h 18.66 v -92.883"
         style="fill:#231f20;fill-opacity:1;fill-rule:nonzero;stroke:none"
         id="path90" />
      <path
         d="m 4653.72,854.434 c -5.07,0 -9.12,1.632 -12.17,4.906 -3.04,3.269 -4.56,8.203 -4.56,14.805 v 62.019 h 30.87 v 12.5 h -30.87 v 24.422 h -9.62 l -6.34,-22.883 -15.1,-6.25 v -7.789 h 15 v -62.5 c 0,-8.269 1.36,-14.742 4.09,-19.422 2.72,-4.679 6.36,-7.996 10.91,-9.953 4.55,-1.953 9.62,-2.934 15.19,-2.934 3.14,0 6.36,0.29 9.67,0.872 3.3,0.574 5.88,1.277 7.73,2.109 v 12.402 c -1.72,-0.636 -3.97,-1.183 -6.72,-1.629 -2.76,-0.449 -5.45,-0.675 -8.08,-0.675"
         style="fill:#231f20;fill-opacity:1;fill-rule:nonzero;stroke:none"
         id="path92" />
      <path
         d="m 4839.43,945.59 c 4.2,-8.207 6.3,-18.625 6.3,-31.25 0,-18.914 -4.86,-33.145 -14.57,-42.692 -9.71,-9.554 -24.25,-14.332 -43.61,-14.332 h -19.9 v 112.598 h 23.56 c 11.73,0 21.65,-2.008 29.76,-6.008 8.11,-4.011 14.26,-10.113 18.46,-18.316 z m -88.12,38.265 V 843.281 h 38.17 c 15.57,0 28.83,2.676 39.76,8.028 10.92,5.351 19.28,13.332 25.04,23.945 5.77,10.605 8.66,23.828 8.66,39.66 0,15.066 -2.81,27.711 -8.42,37.93 -5.6,10.226 -13.57,17.953 -23.89,23.176 -10.32,5.222 -22.63,7.835 -36.92,7.835 h -42.4"
         style="fill:#231f20;fill-opacity:1;fill-rule:nonzero;stroke:none"
         id="path94" />
      <path
         d="m 4950.66,935.59 c 2.11,-0.262 4.04,-0.613 5.77,-1.063 l 2.02,14.809 c -1.8,0.387 -3.85,0.691 -6.15,0.914 -2.32,0.227 -4.52,0.34 -6.64,0.34 -5,0 -9.54,-0.965 -13.61,-2.891 -4.07,-1.918 -7.64,-4.5 -10.72,-7.738 -3.07,-3.234 -5.7,-6.809 -7.88,-10.719 h -0.68 l -1.73,19.422 h -13.27 V 843.281 h 16.06 v 56.539 c 0,5.446 0.8,10.395 2.41,14.852 1.6,4.457 3.81,8.273 6.63,11.441 2.82,3.176 6.11,5.61 9.86,7.313 3.75,1.695 7.74,2.551 11.97,2.551 1.85,0 3.84,-0.133 5.96,-0.387"
         style="fill:#231f20;fill-opacity:1;fill-rule:nonzero;stroke:none"
         id="path96" />
      <path
         d="m 4995.2,905.781 c 0.96,10 3.98,17.789 9.04,23.364 5.06,5.578 11.86,8.363 20.39,8.363 6.02,0 10.95,-1.328 14.8,-3.985 3.85,-2.664 6.72,-6.382 8.61,-11.156 1.89,-4.777 2.87,-10.304 2.93,-16.586 z m 52.69,38.848 c -6.41,3.969 -14.1,5.961 -23.07,5.961 -9.43,0 -17.62,-2.25 -24.57,-6.735 -6.96,-4.484 -12.34,-10.882 -16.16,-19.183 -3.81,-8.301 -5.71,-18.125 -5.71,-29.469 0,-11.605 2.08,-21.41 6.25,-29.426 4.16,-8.011 10.01,-14.086 17.54,-18.218 7.53,-4.133 16.36,-6.204 26.49,-6.204 7.12,0 13.29,0.547 18.51,1.637 5.23,1.09 10.5,2.817 15.82,5.192 v 14.039 c -5.52,-2.375 -10.83,-4.168 -15.96,-5.383 -5.13,-1.223 -11.03,-1.828 -17.69,-1.828 -10.84,0 -19.24,3.234 -25.2,9.711 -5.96,6.472 -9.03,15.894 -9.23,28.269 h 72.79 v 9.906 c 0,9.547 -1.7,17.895 -5.1,25.043 -3.39,7.149 -8.3,12.707 -14.71,16.688"
         style="fill:#231f20;fill-opacity:1;fill-rule:nonzero;stroke:none"
         id="path98" />
      <path
         d="m 5104.89,943.426 c -7.22,-4.778 -10.82,-11.617 -10.82,-20.531 0,-5.832 1.33,-10.579 3.99,-14.231 2.66,-3.652 6.44,-6.75 11.34,-9.281 4.92,-2.528 10.72,-5.078 17.47,-7.641 6.78,-2.5 12.09,-4.793 15.94,-6.875 3.86,-2.086 6.59,-4.23 8.23,-6.441 1.64,-2.215 2.45,-4.762 2.45,-7.649 0,-5.062 -2.06,-9.066 -6.14,-12.019 -4.11,-2.945 -10.71,-4.422 -19.82,-4.422 -6.21,0 -12.31,0.863 -18.27,2.602 -5.96,1.726 -11.09,3.648 -15.38,5.761 v -14.711 c 4.04,-2.113 8.75,-3.746 14.13,-4.898 5.39,-1.16 11.76,-1.735 19.13,-1.735 8.66,0 16.1,1.157 22.36,3.465 6.25,2.305 11.06,5.75 14.42,10.332 3.36,4.582 5.06,10.243 5.06,16.973 0,5.77 -1.31,10.496 -3.91,14.184 -2.59,3.683 -6.29,6.828 -11.1,9.421 -4.8,2.598 -10.51,5.114 -17.12,7.547 -6.6,2.504 -11.92,4.684 -15.94,6.543 -4.05,1.856 -6.98,3.844 -8.81,5.961 -1.83,2.117 -2.74,4.809 -2.74,8.074 0,4.235 1.97,7.567 5.92,10.004 3.93,2.434 9.59,3.649 16.96,3.649 5.12,0 10.16,-0.641 15.11,-1.918 4.92,-1.285 9.58,-2.856 13.93,-4.719 l 5.38,12.793 c -4.81,2.117 -9.97,3.797 -15.52,5.047 -5.55,1.254 -11.49,1.879 -17.84,1.879 -11.73,0 -21.2,-2.391 -28.41,-7.164"
         style="fill:#231f20;fill-opacity:1;fill-rule:nonzero;stroke:none"
         id="path100" />
      <path
         d="m 5218.57,865.203 c -4.84,7.051 -7.26,17.051 -7.26,30 0,13.012 2.43,23.285 7.31,30.82 4.87,7.528 12.21,11.293 22.01,11.293 11.74,0 19.83,-3.589 24.29,-10.765 4.45,-7.184 6.68,-17.469 6.68,-30.867 v -2.887 c 0,-12.629 -2.34,-22.145 -7.02,-28.559 -4.68,-6.41 -12.66,-9.613 -23.95,-9.613 -9.86,0 -17.22,3.527 -22.06,10.578 z M 5253,843.617 c 4.19,1.504 7.81,3.543 10.86,6.106 3.04,2.562 5.56,5.414 7.55,8.554 h 0.67 l 2.4,-14.996 h 12.89 v 149.614 h -15.96 v -42.207 c 0,-2.188 0.12,-5.004 0.39,-8.465 0.25,-3.465 0.5,-6.192 0.76,-8.172 h -1.15 c -2.06,3.14 -4.59,5.945 -7.6,8.414 -3.02,2.465 -6.6,4.433 -10.77,5.91 -4.17,1.477 -9.03,2.215 -14.61,2.215 -13.21,0 -23.79,-4.633 -31.73,-13.899 -7.96,-9.261 -11.92,-22.961 -11.92,-41.101 0,-17.953 3.89,-31.477 11.67,-40.578 7.79,-9.106 18.35,-13.657 31.69,-13.657 5.7,0 10.65,0.758 14.86,2.262"
         style="fill:#231f20;fill-opacity:1;fill-rule:nonzero;stroke:none"
         id="path102" />
      <path
         d="m 5338.07,905.781 c 0.96,10 3.97,17.789 9.04,23.364 5.06,5.578 11.85,8.363 20.38,8.363 6.02,0 10.97,-1.328 14.81,-3.985 3.85,-2.664 6.71,-6.382 8.6,-11.156 1.89,-4.777 2.87,-10.304 2.94,-16.586 z m 52.69,38.848 c -6.41,3.969 -14.1,5.961 -23.08,5.961 -9.42,0 -17.61,-2.25 -24.57,-6.735 -6.96,-4.484 -12.34,-10.882 -16.15,-19.183 -3.81,-8.301 -5.72,-18.125 -5.72,-29.469 0,-11.605 2.08,-21.41 6.25,-29.426 4.17,-8.011 10.01,-14.086 17.55,-18.218 7.53,-4.133 16.35,-6.204 26.49,-6.204 7.11,0 13.29,0.547 18.5,1.637 5.23,1.09 10.5,2.817 15.83,5.192 v 14.039 c -5.52,-2.375 -10.84,-4.168 -15.96,-5.383 -5.13,-1.223 -11.03,-1.828 -17.7,-1.828 -10.84,0 -19.23,3.234 -25.19,9.711 -5.96,6.472 -9.04,15.894 -9.23,28.269 h 72.78 v 9.906 c 0,9.547 -1.7,17.895 -5.09,25.043 -3.4,7.149 -8.3,12.707 -14.71,16.688"
         style="fill:#231f20;fill-opacity:1;fill-rule:nonzero;stroke:none"
         id="path104" />
      <path
         d="m 5493.58,950.59 c -4.75,0 -9.27,-0.66 -13.56,-1.977 -4.3,-1.312 -8.18,-3.234 -11.64,-5.765 -3.46,-2.535 -6.31,-5.657 -8.56,-9.375 h -0.86 l -2.4,15.191 h -12.89 V 843.281 h 15.96 v 55.188 c 0,12.566 2.37,22.148 7.12,28.754 4.74,6.601 12.95,9.906 24.62,9.906 8.26,0 14.4,-2.188 18.41,-6.543 4,-4.359 6.01,-10.93 6.01,-19.711 v -67.594 h 15.77 v 68.657 c 0,13.523 -3.21,23.343 -9.62,29.464 -6.41,6.121 -15.87,9.188 -28.36,9.188"
         style="fill:#231f20;fill-opacity:1;fill-rule:nonzero;stroke:none"
         id="path106" />
      <path
         d="m 3791.48,616.34 c 0,-7.371 -1.33,-13.86 -3.99,-19.469 -2.66,-5.609 -6.73,-9.973 -12.21,-13.082 -5.48,-3.109 -12.52,-4.66 -21.11,-4.66 -12.56,0 -22,3.242 -28.31,9.711 -6.32,6.469 -9.47,15.672 -9.47,27.601 v 91.047 h -16.44 v -90.566 c 0,-15.774 4.53,-28.371 13.6,-37.793 9.07,-9.418 22.29,-14.141 39.67,-14.141 12.17,0 22.3,2.231 30.38,6.692 8.08,4.449 14.12,10.558 18.12,18.308 4.01,7.762 6.01,16.614 6.01,26.543 v 90.957 h -16.25 V 616.34"
         style="fill:#231f20;fill-opacity:1;fill-rule:nonzero;stroke:none"
         id="path108" />
      <path
         d="m 3896.39,674.23 c -4.75,0 -9.27,-0.66 -13.57,-1.98 -4.29,-1.309 -8.17,-3.23 -11.63,-5.762 -3.46,-2.539 -6.32,-5.66 -8.56,-9.379 h -0.86 l -2.41,15.192 h -12.88 V 566.91 h 15.96 v 55.199 c 0,12.563 2.37,22.153 7.11,28.75 4.75,6.602 12.95,9.903 24.62,9.903 8.28,0 14.41,-2.184 18.42,-6.543 4,-4.36 6.01,-10.93 6.01,-19.707 V 566.91 h 15.77 v 68.66 c 0,13.532 -3.21,23.352 -9.62,29.469 -6.41,6.121 -15.87,9.191 -28.36,9.191"
         style="fill:#231f20;fill-opacity:1;fill-rule:nonzero;stroke:none"
         id="path110" />
      <path
         d="m 3971.19,566.91 h 15.96 v 105.391 h -15.96 V 566.91"
         style="fill:#231f20;fill-opacity:1;fill-rule:nonzero;stroke:none"
         id="path112" />
      <path
         d="m 3979.36,711.719 c -2.75,0 -5.04,-0.848 -6.87,-2.539 -1.83,-1.7 -2.74,-4.34 -2.74,-7.942 0,-3.519 0.91,-6.148 2.74,-7.879 1.83,-1.73 4.12,-2.597 6.87,-2.597 2.63,0 4.89,0.867 6.78,2.597 1.89,1.731 2.84,4.36 2.84,7.879 0,3.602 -0.95,6.242 -2.84,7.942 -1.89,1.691 -4.15,2.539 -6.78,2.539"
         style="fill:#231f20;fill-opacity:1;fill-rule:nonzero;stroke:none"
         id="path114" />
      <path
         d="m 4066.09,608.551 c -1.47,-4.289 -3.11,-9.082 -4.9,-14.371 -1.8,-5.289 -3.08,-9.539 -3.85,-12.739 h -0.67 c -0.64,3.2 -1.8,7.43 -3.46,12.688 -1.67,5.25 -3.3,10.062 -4.91,14.422 l -23.17,63.75 h -17.12 l 40.01,-105.391 h 18.26 l 40.1,105.391 h -17.11 l -23.18,-63.75"
         style="fill:#231f20;fill-opacity:1;fill-rule:nonzero;stroke:none"
         id="path116" />
      <path
         d="m 4138.11,629.422 c 0.96,10 3.97,17.789 9.03,23.359 5.07,5.578 11.87,8.367 20.39,8.367 6.03,0 10.96,-1.328 14.81,-3.988 3.85,-2.66 6.72,-6.379 8.61,-11.16 1.89,-4.77 2.86,-10.301 2.93,-16.578 z m 52.69,38.84 c -6.41,3.976 -14.1,5.968 -23.08,5.968 -9.42,0 -17.61,-2.25 -24.56,-6.742 -6.96,-4.476 -12.34,-10.879 -16.16,-19.179 -3.81,-8.297 -5.72,-18.129 -5.72,-29.469 0,-11.602 2.08,-21.41 6.25,-29.418 4.16,-8.024 10.02,-14.094 17.55,-18.223 7.53,-4.14 16.36,-6.211 26.49,-6.211 7.11,0 13.28,0.543 18.51,1.633 5.22,1.09 10.5,2.828 15.82,5.199 v 14.039 c -5.52,-2.371 -10.84,-4.168 -15.97,-5.379 -5.13,-1.23 -11.02,-1.832 -17.69,-1.832 -10.83,0 -19.23,3.231 -25.19,9.711 -5.96,6.481 -9.04,15.903 -9.23,28.27 h 72.79 v 9.902 c 0,9.547 -1.7,17.899 -5.1,25.047 -3.4,7.152 -8.3,12.711 -14.71,16.684"
         style="fill:#231f20;fill-opacity:1;fill-rule:nonzero;stroke:none"
         id="path118" />
      <path
         d="m 4289.55,674.23 c -5.01,0 -9.54,-0.968 -13.61,-2.89 -4.07,-1.918 -7.65,-4.5 -10.72,-7.738 -3.08,-3.243 -5.71,-6.813 -7.88,-10.723 h -0.68 l -1.73,19.422 h -13.27 V 566.91 h 16.06 v 56.551 c 0,5.437 0.8,10.391 2.41,14.848 1.59,4.461 3.81,8.269 6.63,11.441 2.82,3.18 6.1,5.609 9.85,7.309 3.75,1.703 7.74,2.55 11.98,2.55 1.85,0 3.84,-0.129 5.96,-0.379 2.11,-0.261 4.04,-0.609 5.77,-1.058 l 2.01,14.797 c -1.79,0.39 -3.84,0.691 -6.15,0.922 -2.31,0.218 -4.52,0.339 -6.63,0.339"
         style="fill:#231f20;fill-opacity:1;fill-rule:nonzero;stroke:none"
         id="path120" />
      <path
         d="m 4379.26,619.371 c -4.81,2.598 -10.52,5.109 -17.12,7.551 -6.6,2.5 -11.92,4.68 -15.96,6.539 -4.04,1.848 -6.97,3.84 -8.8,5.961 -1.83,2.109 -2.74,4.808 -2.74,8.078 0,4.23 1.97,7.559 5.92,10 3.94,2.43 9.59,3.648 16.96,3.648 5.14,0 10.17,-0.636 15.1,-1.918 4.94,-1.289 9.59,-2.859 13.95,-4.718 l 5.39,12.789 c -4.81,2.121 -9.99,3.801 -15.54,5.051 -5.55,1.25 -11.49,1.878 -17.84,1.878 -11.73,0 -21.2,-2.39 -28.41,-7.171 -7.21,-4.778 -10.82,-11.618 -10.82,-20.528 0,-5.832 1.34,-10.582 3.99,-14.23 2.66,-3.653 6.45,-6.75 11.35,-9.281 4.9,-2.532 10.72,-5.079 17.45,-7.641 6.8,-2.5 12.12,-4.789 15.96,-6.867 3.85,-2.09 6.59,-4.242 8.23,-6.453 1.63,-2.207 2.45,-4.758 2.45,-7.649 0,-5.058 -2.05,-9.058 -6.16,-12.012 -4.1,-2.949 -10.7,-4.429 -19.81,-4.429 -6.22,0 -12.3,0.871 -18.26,2.601 -5.96,1.731 -11.09,3.649 -15.39,5.77 v -14.711 c 4.04,-2.117 8.75,-3.758 14.14,-4.91 5.38,-1.16 11.76,-1.731 19.13,-1.731 8.66,0 16.11,1.16 22.36,3.461 6.25,2.313 11.06,5.762 14.42,10.34 3.37,4.582 5.05,10.242 5.05,16.973 0,5.769 -1.3,10.5 -3.89,14.187 -2.6,3.68 -6.3,6.821 -11.11,9.422"
         style="fill:#231f20;fill-opacity:1;fill-rule:nonzero;stroke:none"
         id="path122" />
      <path
         d="m 4423.87,566.91 h 15.97 v 105.391 h -15.97 V 566.91"
         style="fill:#231f20;fill-opacity:1;fill-rule:nonzero;stroke:none"
         id="path124" />
      <path
         d="m 4432.05,711.719 c -2.76,0 -5.05,-0.848 -6.88,-2.539 -1.82,-1.7 -2.74,-4.34 -2.74,-7.942 0,-3.519 0.92,-6.148 2.74,-7.879 1.83,-1.73 4.12,-2.597 6.88,-2.597 2.63,0 4.88,0.867 6.78,2.597 1.89,1.731 2.83,4.36 2.83,7.879 0,3.602 -0.94,6.242 -2.83,7.942 -1.9,1.691 -4.15,2.539 -6.78,2.539"
         style="fill:#231f20;fill-opacity:1;fill-rule:nonzero;stroke:none"
         id="path126" />
      <path
         d="m 4511.57,578.07 c -5.07,0 -9.13,1.629 -12.17,4.91 -3.04,3.27 -4.57,8.2 -4.57,14.801 v 62.02 h 30.87 v 12.5 h -30.87 v 24.418 h -9.61 l -6.35,-22.879 -15.09,-6.25 v -7.789 h 15 v -62.5 c 0,-8.27 1.36,-14.742 4.08,-19.422 2.73,-4.68 6.36,-8 10.92,-9.957 4.55,-1.953 9.61,-2.934 15.19,-2.934 3.14,0 6.36,0.293 9.66,0.871 3.3,0.571 5.88,1.282 7.74,2.11 v 12.41 c -1.73,-0.641 -3.97,-1.188 -6.73,-1.629 -2.75,-0.449 -5.45,-0.68 -8.07,-0.68"
         style="fill:#231f20;fill-opacity:1;fill-rule:nonzero;stroke:none"
         id="path128" />
      <path
         d="m 4594.25,611.238 c -1.92,-5.449 -3.72,-10.777 -5.38,-16 -1.67,-5.226 -2.95,-9.437 -3.85,-12.648 h -0.67 c -0.52,2.82 -1.22,5.738 -2.12,8.75 -0.9,3.012 -1.92,6.172 -3.08,9.469 -1.15,3.3 -2.4,6.75 -3.75,10.339 l -23.27,61.153 h -17.11 l 42.21,-105.582 -5.77,-14.809 c -1.54,-3.969 -3.36,-7.398 -5.48,-10.289 -2.12,-2.883 -4.63,-5.07 -7.55,-6.582 -2.92,-1.508 -6.36,-2.258 -10.33,-2.258 -2.18,0 -4.28,0.129 -6.3,0.379 -2.02,0.262 -3.74,0.551 -5.14,0.871 v -12.793 c 1.66,-0.449 3.65,-0.847 5.96,-1.199 2.3,-0.348 4.96,-0.527 7.98,-0.527 6.54,0 12.11,1.289 16.73,3.886 4.61,2.602 8.54,6.301 11.78,11.114 3.23,4.808 6.07,10.449 8.5,16.918 l 45.87,120.871 h -17.21 l -22.02,-61.063"
         style="fill:#231f20;fill-opacity:1;fill-rule:nonzero;stroke:none"
         id="path130" />
      <path
         d="m 4780.3,597.781 c -2.24,-6.211 -5.72,-11.019 -10.43,-14.422 -4.71,-3.398 -10.72,-5.097 -18.03,-5.097 -7.37,0 -13.4,1.699 -18.07,5.097 -4.69,3.403 -8.15,8.211 -10.39,14.422 -2.24,6.219 -3.37,13.559 -3.37,22.02 0,12.82 2.55,22.847 7.65,30.097 5.09,7.243 13.12,10.864 24.09,10.864 7.43,0 13.49,-1.672 18.17,-5 4.68,-3.332 8.14,-8.063 10.38,-14.184 2.25,-6.117 3.37,-13.379 3.37,-21.777 0,-8.461 -1.12,-15.801 -3.37,-22.02 z m -2.93,70 c -7.21,4.297 -15.62,6.449 -25.24,6.449 -10.06,0 -18.74,-2.128 -26.01,-6.402 -7.28,-4.269 -12.87,-10.449 -16.78,-18.558 -3.91,-8.11 -5.86,-17.93 -5.86,-29.469 0,-8.653 1.17,-16.379 3.51,-23.172 2.34,-6.801 5.63,-12.527 9.9,-17.207 4.26,-4.684 9.33,-8.262 15.19,-10.731 5.87,-2.472 12.32,-3.703 19.38,-3.703 7.56,0 14.34,1.231 20.33,3.703 6,2.469 11.11,6.047 15.34,10.731 4.23,4.68 7.46,10.406 9.71,17.207 2.24,6.793 3.37,14.519 3.37,23.172 0,11.469 -2.01,21.258 -6.01,29.379 -4.01,8.109 -9.62,14.308 -16.83,18.601"
         style="fill:#231f20;fill-opacity:1;fill-rule:nonzero;stroke:none"
         id="path132" />
      <path
         d="m 4870.11,717.59 c -7.18,0 -13.27,-1.32 -18.27,-3.942 -5,-2.628 -8.82,-6.718 -11.45,-12.257 -2.62,-5.551 -3.94,-12.743 -3.94,-21.59 v -7.02 l -18.65,-5.293 v -7.687 h 18.65 V 566.91 h 15.96 v 92.891 h 26.26 v 12.5 h -26.26 V 680 c 0,8.391 1.46,14.559 4.38,18.5 2.91,3.949 7.42,5.922 13.52,5.922 2.81,0 5.59,-0.313 8.31,-0.922 2.72,-0.602 5.18,-1.262 7.36,-1.969 l 4.13,12.598 c -2.56,0.902 -5.53,1.699 -8.89,2.402 -3.37,0.707 -7.07,1.059 -11.11,1.059"
         style="fill:#231f20;fill-opacity:1;fill-rule:nonzero;stroke:none"
         id="path134" />
      <path
         d="m 4979.43,626.051 16.74,44.328 c 0.51,1.543 1.11,3.41 1.82,5.621 0.71,2.219 1.42,4.621 2.16,7.219 0.74,2.59 1.43,5.203 2.07,7.832 0.58,-1.731 1.31,-4 2.21,-6.821 0.9,-2.832 1.78,-5.55 2.65,-8.179 0.87,-2.629 1.49,-4.52 1.87,-5.672 l 16.44,-44.328 z m 15.77,82.019 -55,-141.16 h 16.54 l 17.21,44.621 h 56.35 l 17.31,-44.621 h 16.92 l -54.62,141.16 h -14.71"
         style="fill:#231f20;fill-opacity:1;fill-rule:nonzero;stroke:none"
         id="path136" />
      <path
         d="m 5158.51,598.309 c -2.13,-6.309 -5.4,-11.231 -9.75,-14.758 -4.36,-3.52 -9.81,-5.289 -16.34,-5.289 -7.64,0 -13.7,1.609 -18.24,4.808 -4.51,3.2 -7.75,7.891 -9.7,14.039 -1.96,6.153 -2.93,13.692 -2.93,22.59 v 3.082 c 0.13,8.457 1.22,15.5 3.27,21.11 2.04,5.609 5.3,9.82 9.75,12.64 4.46,2.821 10.34,4.231 17.65,4.231 10.01,0 17.42,-3.672 22.26,-11.012 4.83,-7.34 7.25,-17.23 7.25,-29.66 0,-8.211 -1.07,-15.461 -3.22,-21.781 z m -23.49,75.921 c -5.85,0 -10.89,-0.789 -15.15,-2.359 -4.27,-1.57 -7.88,-3.691 -10.82,-6.351 -2.95,-2.661 -5.45,-5.59 -7.5,-8.801 h -0.77 l -2.12,15.582 h -13.17 v -152.5 h 16.06 v 43.269 c 0,2.629 -0.15,5.7 -0.44,9.231 -0.28,3.519 -0.52,6.539 -0.72,9.039 h 1.16 c 1.98,-2.949 4.48,-5.668 7.5,-8.168 3.01,-2.5 6.64,-4.492 10.86,-5.973 4.24,-1.48 9.15,-2.211 14.72,-2.211 8.85,0 16.51,2.082 23.02,6.262 6.51,4.16 11.55,10.309 15.15,18.461 3.6,8.129 5.39,18.199 5.39,30.187 0,18.141 -3.91,31.731 -11.75,40.774 -7.81,9.039 -18.29,13.558 -31.42,13.558"
         style="fill:#231f20;fill-opacity:1;fill-rule:nonzero;stroke:none"
         id="path138" />
      <path
         d="m 5282.95,598.309 c -2.14,-6.309 -5.4,-11.231 -9.76,-14.758 -4.35,-3.52 -9.81,-5.289 -16.34,-5.289 -7.64,0 -13.7,1.609 -18.23,4.808 -4.51,3.2 -7.76,7.891 -9.71,14.039 -1.96,6.153 -2.93,13.692 -2.93,22.59 v 3.082 c 0.12,8.457 1.22,15.5 3.27,21.11 2.05,5.609 5.31,9.82 9.76,12.64 4.45,2.821 10.33,4.231 17.64,4.231 10.01,0 17.42,-3.672 22.26,-11.012 4.84,-7.34 7.26,-17.23 7.26,-29.66 0,-8.211 -1.07,-15.461 -3.22,-21.781 z m -23.5,75.921 c -5.84,0 -10.89,-0.789 -15.15,-2.359 -4.27,-1.57 -7.88,-3.691 -10.82,-6.351 -2.95,-2.661 -5.45,-5.59 -7.5,-8.801 h -0.77 l -2.12,15.582 h -13.17 v -152.5 h 16.06 v 43.269 c 0,2.629 -0.14,5.7 -0.43,9.231 -0.3,3.519 -0.53,6.539 -0.73,9.039 h 1.16 c 1.99,-2.949 4.48,-5.668 7.5,-8.168 3.01,-2.5 6.64,-4.492 10.87,-5.973 4.23,-1.48 9.13,-2.211 14.7,-2.211 8.86,0 16.53,2.082 23.04,6.262 6.5,4.16 11.55,10.309 15.14,18.461 3.59,8.129 5.39,18.199 5.39,30.187 0,18.141 -3.91,31.731 -11.74,40.774 -7.82,9.039 -18.3,13.558 -31.43,13.558"
         style="fill:#231f20;fill-opacity:1;fill-rule:nonzero;stroke:none"
         id="path140" />
      <path
         d="m 5334.35,566.91 h 16.05 v 149.621 h -16.05 V 566.91"
         style="fill:#231f20;fill-opacity:1;fill-rule:nonzero;stroke:none"
         id="path142" />
      <path
         d="m 5387.99,566.91 h 15.96 v 105.391 h -15.96 V 566.91"
         style="fill:#231f20;fill-opacity:1;fill-rule:nonzero;stroke:none"
         id="path144" />
      <path
         d="m 5396.16,711.719 c -2.75,0 -5.04,-0.848 -6.87,-2.539 -1.83,-1.7 -2.74,-4.34 -2.74,-7.942 0,-3.519 0.91,-6.148 2.74,-7.879 1.83,-1.73 4.12,-2.597 6.87,-2.597 2.63,0 4.9,0.867 6.78,2.597 1.9,1.731 2.84,4.36 2.84,7.879 0,3.602 -0.94,6.242 -2.84,7.942 -1.88,1.691 -4.15,2.539 -6.78,2.539"
         style="fill:#231f20;fill-opacity:1;fill-rule:nonzero;stroke:none"
         id="path146" />
      <path
         d="m 5452.6,629.422 c 0.96,10 3.97,17.789 9.04,23.359 5.06,5.578 11.85,8.367 20.39,8.367 6.02,0 10.96,-1.328 14.8,-3.988 3.85,-2.66 6.71,-6.379 8.61,-11.16 1.88,-4.77 2.86,-10.301 2.93,-16.578 z m 52.69,38.84 c -6.41,3.976 -14.1,5.968 -23.08,5.968 -9.42,0 -17.61,-2.25 -24.56,-6.742 -6.96,-4.476 -12.35,-10.879 -16.16,-19.179 -3.81,-8.297 -5.71,-18.129 -5.71,-29.469 0,-11.602 2.08,-21.41 6.24,-29.418 4.17,-8.024 10.02,-14.094 17.55,-18.223 7.53,-4.14 16.36,-6.211 26.49,-6.211 7.12,0 13.29,0.543 18.51,1.633 5.23,1.09 10.49,2.828 15.82,5.199 v 14.039 c -5.51,-2.371 -10.84,-4.168 -15.96,-5.379 -5.13,-1.23 -11.03,-1.832 -17.69,-1.832 -10.84,0 -19.24,3.231 -25.2,9.711 -5.96,6.481 -9.04,15.903 -9.23,28.27 h 72.79 v 9.902 c 0,9.547 -1.7,17.899 -5.09,25.047 -3.4,7.152 -8.31,12.711 -14.72,16.684"
         style="fill:#231f20;fill-opacity:1;fill-rule:nonzero;stroke:none"
         id="path148" />
      <path
         d="m 5627.13,616.441 c 0,-12.632 -2.35,-22.152 -7.02,-28.562 -4.68,-6.41 -12.66,-9.617 -23.96,-9.617 -9.87,0 -17.23,3.527 -22.06,10.578 -4.84,7.051 -7.27,17.051 -7.27,30 0,13.012 2.44,23.289 7.31,30.82 4.88,7.531 12.22,11.301 22.02,11.301 11.74,0 19.84,-3.602 24.29,-10.77 4.46,-7.191 6.69,-17.472 6.69,-30.871 z m -0.2,57.879 c 0,-2.179 0.13,-5 0.39,-8.461 0.26,-3.461 0.51,-6.187 0.76,-8.168 h -1.15 c -2.05,3.137 -4.58,5.938 -7.59,8.411 -3.02,2.468 -6.61,4.437 -10.77,5.91 -4.17,1.476 -9.05,2.218 -14.63,2.218 -13.2,0 -23.78,-4.64 -31.73,-13.902 -7.95,-9.258 -11.92,-22.957 -11.92,-41.098 0,-17.96 3.89,-31.48 11.68,-40.582 7.79,-9.097 18.35,-13.66 31.69,-13.66 5.69,0 10.66,0.75 14.86,2.262 4.19,1.512 7.82,3.551 10.87,6.109 3.04,2.563 5.56,5.411 7.54,8.563 h 0.67 l 2.41,-15.012 h 12.89 v 149.621 h -15.97 V 674.32"
         style="fill:#231f20;fill-opacity:1;fill-rule:nonzero;stroke:none"
         id="path150" />
      <path
         d="m 5799.71,635.039 c -5.76,3.371 -12.78,6.563 -21.05,9.57 -7.57,2.75 -13.64,5.403 -18.22,7.93 -4.58,2.531 -7.91,5.441 -10.01,8.699 -2.08,3.274 -3.11,7.383 -3.11,12.313 0,4.418 1.08,8.238 3.26,11.437 2.18,3.211 5.34,5.692 9.47,7.453 4.14,1.77 9.21,2.649 15.24,2.649 6.03,0 11.88,-0.711 17.55,-2.121 5.67,-1.399 11.05,-3.168 16.11,-5.278 l 5.1,14.028 c -5.33,2.383 -11.18,4.269 -17.55,5.679 -6.38,1.411 -13.32,2.114 -20.82,2.114 -8.78,0 -16.56,-1.43 -23.32,-4.274 -6.76,-2.859 -12.05,-6.957 -15.86,-12.308 -3.82,-5.36 -5.73,-11.782 -5.73,-19.282 0,-5.449 0.79,-10.289 2.36,-14.519 1.57,-4.231 3.9,-7.949 6.98,-11.16 3.07,-3.199 6.89,-6.071 11.44,-8.598 4.54,-2.539 9.8,-4.859 15.76,-6.973 8.46,-3.019 15.15,-5.847 20.05,-8.507 4.91,-2.661 8.42,-5.61 10.53,-8.852 2.12,-3.238 3.17,-7.258 3.17,-12.07 0,-4.989 -1.26,-9.27 -3.79,-12.828 -2.54,-3.563 -6.24,-6.282 -11.11,-8.172 -4.88,-1.899 -10.84,-2.84 -17.88,-2.84 -7.57,0 -14.82,0.851 -21.73,2.551 -6.93,1.691 -12.8,3.539 -17.6,5.519 v -15.668 c 3.01,-1.41 6.5,-2.601 10.48,-3.562 3.97,-0.957 8.33,-1.699 13.08,-2.207 4.74,-0.512 9.77,-0.774 15.09,-0.774 10.07,0 18.81,1.543 26.25,4.621 7.44,3.082 13.22,7.551 17.35,13.411 4.14,5.871 6.21,12.968 6.21,21.3 0,7.43 -1.5,13.571 -4.51,18.41 -3.02,4.84 -7.41,8.942 -13.19,12.309"
         style="fill:#231f20;fill-opacity:1;fill-rule:nonzero;stroke:none"
         id="path152" />
      <path
         d="m 5872.74,655.57 c 4.83,3.141 10.91,4.711 18.22,4.711 3.66,0 7.58,-0.511 11.78,-1.543 4.2,-1.019 7.9,-2.179 11.11,-3.457 l 4.8,13.367 c -3.14,1.602 -7.16,2.93 -12.06,3.993 -4.91,1.058 -9.99,1.589 -15.25,1.589 -9.54,0 -18.07,-1.96 -25.57,-5.871 -7.5,-3.91 -13.39,-9.918 -17.65,-18.031 -4.26,-8.109 -6.39,-18.539 -6.39,-31.297 0,-12.179 2.02,-22.269 6.06,-30.293 4.04,-8.008 9.67,-13.968 16.92,-17.879 7.25,-3.918 15.61,-5.871 25.1,-5.871 5.96,0 11.1,0.481 15.43,1.442 4.33,0.961 8.26,2.34 11.77,4.14 v 14.231 c -3.64,-1.602 -7.72,-3 -12.2,-4.18 -4.49,-1.191 -9.52,-1.781 -15.1,-1.781 -6.99,0 -12.8,1.59 -17.45,4.762 -4.65,3.168 -8.14,7.769 -10.49,13.796 -2.33,6.024 -3.5,13.301 -3.5,21.832 0,8.899 1.2,16.399 3.6,22.489 2.41,6.09 6.03,10.711 10.87,13.851"
         style="fill:#231f20;fill-opacity:1;fill-rule:nonzero;stroke:none"
         id="path154" />
      <path
         d="m 5945.86,566.91 h 15.96 v 105.391 h -15.96 V 566.91"
         style="fill:#231f20;fill-opacity:1;fill-rule:nonzero;stroke:none"
         id="path156" />
      <path
         d="m 5954.03,711.719 c -2.76,0 -5.04,-0.848 -6.87,-2.539 -1.83,-1.7 -2.75,-4.34 -2.75,-7.942 0,-3.519 0.92,-6.148 2.75,-7.879 1.83,-1.73 4.11,-2.597 6.87,-2.597 2.63,0 4.89,0.867 6.78,2.597 1.9,1.731 2.83,4.36 2.83,7.879 0,3.602 -0.93,6.242 -2.83,7.942 -1.89,1.691 -4.15,2.539 -6.78,2.539"
         style="fill:#231f20;fill-opacity:1;fill-rule:nonzero;stroke:none"
         id="path158" />
      <path
         d="m 6010.47,629.422 c 0.96,10 3.97,17.789 9.04,23.359 5.06,5.578 11.85,8.367 20.38,8.367 6.02,0 10.97,-1.328 14.81,-3.988 3.85,-2.66 6.71,-6.379 8.61,-11.16 1.88,-4.77 2.86,-10.301 2.93,-16.578 z m 52.69,38.84 c -6.41,3.976 -14.1,5.968 -23.08,5.968 -9.42,0 -17.61,-2.25 -24.57,-6.742 -6.96,-4.476 -12.34,-10.879 -16.15,-19.179 -3.81,-8.297 -5.72,-18.129 -5.72,-29.469 0,-11.602 2.08,-21.41 6.25,-29.418 4.17,-8.024 10.01,-14.094 17.55,-18.223 7.53,-4.14 16.36,-6.211 26.49,-6.211 7.11,0 13.29,0.543 18.51,1.633 5.22,1.09 10.49,2.828 15.82,5.199 v 14.039 c -5.51,-2.371 -10.84,-4.168 -15.96,-5.379 -5.13,-1.23 -11.03,-1.832 -17.7,-1.832 -10.83,0 -19.23,3.231 -25.19,9.711 -5.96,6.481 -9.04,15.903 -9.23,28.27 h 72.79 v 9.902 c 0,9.547 -1.7,17.899 -5.09,25.047 -3.4,7.152 -8.31,12.711 -14.72,16.684"
         style="fill:#231f20;fill-opacity:1;fill-rule:nonzero;stroke:none"
         id="path160" />
      <path
         d="m 6163.93,674.23 c -4.75,0 -9.27,-0.66 -13.56,-1.98 -4.3,-1.309 -8.18,-3.23 -11.64,-5.762 -3.46,-2.539 -6.31,-5.66 -8.56,-9.379 h -0.86 l -2.4,15.192 h -12.89 V 566.91 h 15.96 v 55.199 c 0,12.563 2.37,22.153 7.12,28.75 4.74,6.602 12.95,9.903 24.62,9.903 8.26,0 14.4,-2.184 18.41,-6.543 4,-4.36 6.01,-10.93 6.01,-19.707 V 566.91 h 15.77 v 68.66 c 0,13.532 -3.21,23.352 -9.62,29.469 -6.41,6.121 -15.87,9.191 -28.36,9.191"
         style="fill:#231f20;fill-opacity:1;fill-rule:nonzero;stroke:none"
         id="path162" />
      <path
         d="m 6263.87,655.57 c 4.84,3.141 10.92,4.711 18.22,4.711 3.66,0 7.59,-0.511 11.78,-1.543 4.2,-1.019 7.9,-2.179 11.11,-3.457 l 4.81,13.367 c -3.15,1.602 -7.16,2.93 -12.07,3.993 -4.91,1.058 -9.99,1.589 -15.24,1.589 -9.55,0 -18.08,-1.96 -25.58,-5.871 -7.5,-3.91 -13.38,-9.918 -17.64,-18.031 -4.26,-8.109 -6.4,-18.539 -6.4,-31.297 0,-12.179 2.02,-22.269 6.06,-30.293 4.04,-8.008 9.68,-13.968 16.93,-17.879 7.24,-3.918 15.6,-5.871 25.09,-5.871 5.96,0 11.1,0.481 15.43,1.442 4.33,0.961 8.26,2.34 11.78,4.14 v 14.231 c -3.65,-1.602 -7.72,-3 -12.21,-4.18 -4.48,-1.191 -9.52,-1.781 -15.1,-1.781 -6.98,0 -12.8,1.59 -17.45,4.762 -4.65,3.168 -8.14,7.769 -10.48,13.796 -2.34,6.024 -3.51,13.301 -3.51,21.832 0,8.899 1.2,16.399 3.6,22.489 2.41,6.09 6.03,10.711 10.87,13.851"
         style="fill:#231f20;fill-opacity:1;fill-rule:nonzero;stroke:none"
         id="path164" />
      <path
         d="m 6347.96,629.422 c 0.95,10 3.96,17.789 9.04,23.359 5.06,5.578 11.85,8.367 20.38,8.367 6.02,0 10.96,-1.328 14.8,-3.988 3.85,-2.66 6.72,-6.379 8.61,-11.16 1.89,-4.77 2.86,-10.301 2.93,-16.578 z m 52.69,38.84 c -6.41,3.976 -14.11,5.968 -23.09,5.968 -9.42,0 -17.6,-2.25 -24.56,-6.742 -6.96,-4.476 -12.34,-10.879 -16.15,-19.179 -3.82,-8.297 -5.72,-18.129 -5.72,-29.469 0,-11.602 2.08,-21.41 6.24,-29.418 4.18,-8.024 10.02,-14.094 17.55,-18.223 7.54,-4.14 16.36,-6.211 26.49,-6.211 7.12,0 13.29,0.543 18.51,1.633 5.23,1.09 10.5,2.828 15.82,5.199 v 14.039 c -5.51,-2.371 -10.83,-4.168 -15.95,-5.379 -5.13,-1.23 -11.04,-1.832 -17.7,-1.832 -10.84,0 -19.23,3.231 -25.19,9.711 -5.96,6.481 -9.04,15.903 -9.24,28.27 h 72.79 v 9.902 c 0,9.547 -1.7,17.899 -5.09,25.047 -3.4,7.152 -8.3,12.711 -14.71,16.684"
         style="fill:#231f20;fill-opacity:1;fill-rule:nonzero;stroke:none"
         id="path166" />
      <path
         d="m 6515.79,609.949 c -2.6,3.68 -6.3,6.821 -11.1,9.422 -4.81,2.598 -10.52,5.109 -17.13,7.551 -6.6,2.5 -11.92,4.68 -15.95,6.539 -4.05,1.848 -6.98,3.84 -8.81,5.961 -1.82,2.109 -2.73,4.808 -2.73,8.078 0,4.23 1.96,7.559 5.91,10 3.94,2.43 9.59,3.648 16.97,3.648 5.12,0 10.16,-0.636 15.1,-1.918 4.93,-1.289 9.58,-2.859 13.93,-4.718 l 5.39,12.789 c -4.81,2.121 -9.98,3.801 -15.53,5.051 -5.54,1.25 -11.49,1.878 -17.83,1.878 -11.74,0 -21.21,-2.39 -28.42,-7.171 -7.21,-4.778 -10.82,-11.618 -10.82,-20.528 0,-5.832 1.33,-10.582 4,-14.23 2.66,-3.653 6.44,-6.75 11.35,-9.281 4.9,-2.532 10.72,-5.079 17.45,-7.641 6.79,-2.5 12.11,-4.789 15.96,-6.867 3.85,-2.09 6.58,-4.242 8.21,-6.453 1.65,-2.207 2.46,-4.758 2.46,-7.649 0,-5.058 -2.06,-9.058 -6.15,-12.012 -4.1,-2.949 -10.71,-4.429 -19.81,-4.429 -6.22,0 -12.31,0.871 -18.27,2.601 -5.96,1.731 -11.09,3.649 -15.38,5.77 v -14.711 c 4.03,-2.117 8.74,-3.758 14.13,-4.91 5.38,-1.16 11.76,-1.731 19.13,-1.731 8.66,0 16.11,1.16 22.36,3.461 6.25,2.313 11.06,5.762 14.42,10.34 3.36,4.582 5.05,10.242 5.05,16.973 0,5.769 -1.29,10.5 -3.89,14.187"
         style="fill:#231f20;fill-opacity:1;fill-rule:nonzero;stroke:none"
         id="path168" />
    </g>
  </g>
</svg>
