<?xml version="1.0" encoding="UTF-8" standalone="no"?>
<!-- Created with Inkscape (http://www.inkscape.org/) -->

<svg
   version="1.1"
   id="svg2"
   width="181.33333"
   height="279.46667"
   viewBox="0 0 181.33333 279.46667"
   sodipodi:docname="Signet_gruen.eps"
   xmlns:inkscape="http://www.inkscape.org/namespaces/inkscape"
   xmlns:sodipodi="http://sodipodi.sourceforge.net/DTD/sodipodi-0.dtd"
   xmlns="http://www.w3.org/2000/svg"
   xmlns:svg="http://www.w3.org/2000/svg">
  <defs
     id="defs6" />
  <sodipodi:namedview
     id="namedview4"
     pagecolor="#ffffff"
     bordercolor="#000000"
     borderopacity="0.25"
     inkscape:showpageshadow="2"
     inkscape:pageopacity="0.0"
     inkscape:pagecheckerboard="0"
     inkscape:deskcolor="#d1d1d1" />
  <g
     id="g8"
     inkscape:groupmode="layer"
     inkscape:label="ink_ext_XXXXXX"
     transform="matrix(1.3333333,0,0,-1.3333333,0,279.46667)">
    <g
       id="g10"
       transform="scale(0.1)">
      <path
         d="m 1222.5,376.258 c -162.5,0 -152.5,188.75 -152.5,188.75 l 274.04,-0.391 c -9.33,-66.562 -27.63,-129.082 -55.91,-187.734 0,0 -21.88,-0.625 -65.63,-0.625"
         style="fill:#00a658;fill-opacity:1;fill-rule:nonzero;stroke:none"
         id="path12" />
      <path
         d="M 1134.63,174.723 C 1014.14,66.3047 852.695,0 675.258,0 430.695,0 214.867,126.543 96.457,315.215 l 897.293,1.043 140.88,-141.535"
         style="fill:#00a658;fill-opacity:1;fill-rule:nonzero;stroke:none"
         id="path14" />
      <path
         d="M 616.25,693.758 927.5,377.508 63.2266,377.883 C 22.8203,461.777 0.257813,555.34 0.257813,653.98 L 0,693.34 l 616.25,0.418"
         style="fill:#00a658;fill-opacity:1;fill-rule:nonzero;stroke:none"
         id="path16" />
      <path
         d="M 0.257813,755.008 0,1075.42 H 235 L 557.5,755.008 H 0.257813"
         style="fill:#00a658;fill-opacity:1;fill-rule:nonzero;stroke:none"
         id="path18" />
      <path
         d="M 0,1310.01 173.438,1136.57 0.257813,1136.88 Z"
         style="fill:#00a658;fill-opacity:1;fill-rule:nonzero;stroke:none"
         id="path20" />
      <path
         d="M 1350.25,1700.01 H 0.257813 c 0,0 -0.921876,-190.21 139.117187,-190 139.375,0.2 1210.625,0 1210.625,0 l 0.25,190"
         style="fill:#00a658;fill-opacity:1;fill-rule:nonzero;stroke:none"
         id="path22" />
      <path
         d="M 1350,1325.01 H 352.5 c 0,0 -20,-189.57 140,-189.57 160,0 857.75,-0.43 857.75,-0.43 l -0.25,190"
         style="fill:#00a658;fill-opacity:1;fill-rule:nonzero;stroke:none"
         id="path24" />
      <path
         d="m 867.918,760.008 c -161.668,0 -154.586,190 -154.586,190 h 638.338 l 0.83,-190 H 867.918"
         style="fill:#00a658;fill-opacity:1;fill-rule:nonzero;stroke:none"
         id="path26" />
      <path
         d="m 118.566,2041.57 c -11.398,18.04 -21.1246,24.06 -38.5582,24.06 -20.789,0 -36.8828,-14.7 -36.8828,-34.42 0,-9.68 4.6953,-17.7 14.082,-24.05 5.3633,-3.34 11.0664,-6.68 17.4336,-9.35 l 7.043,-3.34 7.043,-3.01 7.039,-3.01 c 35.8164,-15.7 50.4844,-33.4 50.4844,-61.13 0,-38.42 -30.703,-68.56 -70.2656,-68.56 -35.8594,0 -60.5313,20.48 -69.21487,57.2 l 24.02347,6.68 c 6,-26.73 21.3867,-40.76 44.8554,-40.76 25.8166,0 45.6016,19.05 45.6016,43.76 0,13.7 -6.035,24.06 -18.441,31.74 -5.7035,3.68 -12.0746,7.02 -19.4496,10.03 l -6.7071,3.34 -6.7031,3 -6.707,3.01 c -32.1172,14.37 -45.1172,30.07 -45.1172,55.12 0,32.41 27.0117,56.88 62.5547,56.88 25.1443,0 44.2383,-11.57 57.5703,-34.49 l -19.684,-12.7"
         style="fill:#231f20;fill-opacity:1;fill-rule:nonzero;stroke:none"
         id="path28" />
      <path
         d="m 301.27,1948.71 h -75.059 l 38.027,89.18 z m 9.675,-23.04 26.352,-63.1 H 364.66 L 264.574,2096.01 162.16,1862.57 h 27.02 l 26.687,63.1 h 95.078"
         style="fill:#231f20;fill-opacity:1;fill-rule:nonzero;stroke:none"
         id="path30" />
      <path
         d="m 556.547,2036.23 c -21.707,20.71 -42.082,29.4 -67.801,29.4 -48.43,0 -89.512,-42.1 -89.512,-91.88 0,-50.78 40.414,-91.87 90.18,-91.87 24.719,0 45.758,9.02 67.133,29.07 v -30.72 c -21.707,-14.54 -42.75,-21.47 -66.465,-21.47 -63.793,0 -115.848,51.52 -115.848,114.33 0,63.47 52.391,115.67 116.184,115.67 25.051,0 43.418,-5.95 66.129,-21.81 v -30.72"
         style="fill:#231f20;fill-opacity:1;fill-rule:nonzero;stroke:none"
         id="path32" />
      <path
         d="m 744.945,1994.34 v 90.61 h 25 v -222.38 h -25 V 1971.3 H 631.82 v -108.73 h -25 v 222.38 h 25 v -90.61 h 113.125"
         style="fill:#231f20;fill-opacity:1;fill-rule:nonzero;stroke:none"
         id="path34" />
      <path
         d="m 927.449,2041.57 c -11.398,18.04 -21.121,24.06 -38.554,24.06 -20.79,0 -36.883,-14.7 -36.883,-34.42 0,-9.68 4.695,-17.7 14.082,-24.05 5.363,-3.34 11.062,-6.68 17.433,-9.35 l 7.043,-3.34 7.039,-3.01 7.043,-3.01 c 35.817,-15.7 50.485,-33.4 50.485,-61.13 0,-38.42 -30.703,-68.56 -70.266,-68.56 -35.859,0 -60.531,20.48 -69.215,57.2 l 24.02,6.68 c 6,-26.73 21.387,-40.76 44.859,-40.76 25.817,0 45.602,19.05 45.602,43.76 0,13.7 -6.039,24.06 -18.446,31.74 -5.699,3.68 -12.07,7.02 -19.445,10.03 l -6.707,3.34 -6.703,3 -6.707,3.01 c -32.117,14.37 -45.117,30.07 -45.117,55.12 0,32.41 27.011,56.88 62.551,56.88 25.148,0 44.238,-11.57 57.574,-34.49 l -19.688,-12.7"
         style="fill:#231f20;fill-opacity:1;fill-rule:nonzero;stroke:none"
         id="path36" />
      <path
         d="m 1025.94,2061.92 v -66.33 h 87.84 v -23.04 h -87.84 v -86.96 h 90.18 v -23.04 h -115.18 v 222.41 h 115.18 v -23.04 h -90.18"
         style="fill:#231f20;fill-opacity:1;fill-rule:nonzero;stroke:none"
         id="path38" />
      <path
         d="m 1161.93,2094.63 173.12,-182.02 v 172.67 h 25 v -232.8 l -173.12,181.7 v -171.67 h -25 v 232.12"
         style="fill:#231f20;fill-opacity:1;fill-rule:nonzero;stroke:none"
         id="path40" />
    </g>
  </g>
</svg>
